<svg width="87" height="97" viewBox="0 0 87 97" fill="none" xmlns="http://www.w3.org/2000/svg">
<g clip-path="url(#clip0_18_746)">
<path d="M45.24 10.3899L48.99 17.9699L57.36 19.1899L51.3 25.0899L52.73 33.4299L45.24 29.4999L37.76 33.4299L39.19 25.0899L33.13 19.1899L41.5 17.9699L45.24 10.3899Z" fill="#47C6BD"/>
<path d="M53.52 37.17C53.2002 37.1713 52.8847 37.0959 52.6 36.95L42.72 31.75L32.84 36.95C32.5131 37.1188 32.1459 37.194 31.7789 37.1676C31.412 37.1411 31.0594 37.0139 30.76 36.8C30.4654 36.5809 30.2367 36.2849 30.0991 35.9445C29.9615 35.6041 29.9204 35.2323 29.98 34.87L31.87 23.87L23.87 16.08C23.6176 15.8191 23.441 15.4944 23.3591 15.1407C23.2773 14.787 23.2932 14.4177 23.4052 14.0724C23.5172 13.7271 23.7211 13.4188 23.995 13.1805C24.2689 12.9423 24.6025 12.7831 24.96 12.72L35.96 11.11L40.9 1.11002C41.0655 0.781693 41.3182 0.505306 41.6304 0.311249C41.9427 0.117191 42.3024 0.0129674 42.67 0.0100098C43.0383 0.0101908 43.3994 0.112051 43.7135 0.304382C44.0276 0.496714 44.2824 0.772045 44.45 1.10001L49.45 11.1L60.45 12.71C60.8075 12.7731 61.1411 12.9323 61.415 13.1706C61.6889 13.4088 61.8928 13.7171 62.0048 14.0624C62.1168 14.4077 62.1328 14.777 62.0509 15.1307C61.969 15.4843 61.7924 15.8091 61.54 16.07L53.54 23.86L55.42 34.86C55.4797 35.2223 55.4385 35.594 55.3009 35.9345C55.1633 36.2749 54.9347 36.5709 54.64 36.79C54.3135 37.0267 53.9231 37.1592 53.52 37.17ZM29.45 16.04L35.33 21.77C35.5567 21.9937 35.7267 22.2683 35.8258 22.571C35.925 22.8736 35.9504 23.1955 35.9 23.51L34.51 31.61L41.78 27.79C42.061 27.6377 42.3755 27.558 42.695 27.558C43.0146 27.558 43.3291 27.6377 43.61 27.79L50.88 31.61L49.49 23.51C49.4396 23.1955 49.4651 22.8736 49.5642 22.571C49.6634 22.2683 49.8333 21.9937 50.06 21.77L55.94 16.04L47.81 14.86C47.4951 14.8109 47.1965 14.6873 46.9391 14.4995C46.6817 14.3116 46.4728 14.0649 46.33 13.78L42.7 6.42001L39.06 13.78C38.9172 14.0649 38.7084 14.3116 38.4509 14.4995C38.1935 14.6873 37.8949 14.8109 37.58 14.86L29.45 16.04Z" fill="#256782"/>
<path d="M67.37 68.1801H15.75C6.74998 68.1801 -1.52588e-05 60.6401 -1.52588e-05 50.6301C0.0214013 48.1983 0.566185 45.7996 1.59727 43.597C2.62837 41.3945 4.12158 39.4398 5.97545 37.8658C7.82932 36.2919 10.0004 35.1355 12.341 34.4753C14.6816 33.8152 17.1369 33.6667 19.54 34.0401C20.1615 32.327 20.9626 30.6845 21.93 29.1401C22.2465 28.7974 22.6729 28.5762 23.1354 28.5146C23.5978 28.4531 24.0672 28.5552 24.4623 28.8032C24.8575 29.0512 25.1535 29.4295 25.2991 29.8727C25.4448 30.3159 25.431 30.796 25.26 31.2301C24.1658 32.9785 23.3273 34.8743 22.77 36.8601C22.6231 37.3534 22.2917 37.7711 21.8447 38.0263C21.3976 38.2814 20.8695 38.3545 20.37 38.2301C19.2707 37.9359 18.138 37.7846 17 37.7801C15.293 37.7468 13.5965 38.0548 12.0102 38.686C10.4238 39.3172 8.97959 40.259 7.76213 41.4559C6.54467 42.6529 5.57851 44.081 4.92046 45.6564C4.2624 47.2318 3.92566 48.9228 3.92998 50.6301C3.92998 57.2301 8.06998 64.2401 15.75 64.2401H67.37C71.4914 64.2401 75.4441 62.6029 78.3584 59.6885C81.2728 56.7742 82.91 52.8216 82.91 48.7001C82.91 44.5786 81.2728 40.626 78.3584 37.7117C75.4441 34.7974 71.4914 33.1601 67.37 33.1601C66.3338 33.1753 65.3018 33.2959 64.29 33.5201C63.8749 33.5999 63.445 33.5462 63.0624 33.3665C62.6797 33.1868 62.3638 32.8905 62.16 32.5201C61.4498 31.1892 60.5982 29.9386 59.62 28.7901C59.3894 28.6054 59.2026 28.3718 59.073 28.1063C58.9435 27.8408 58.8744 27.5498 58.8707 27.2544C58.8669 26.959 58.9287 26.6664 59.0516 26.3977C59.1744 26.129 59.3552 25.8908 59.5811 25.7003C59.807 25.5099 60.0723 25.3718 60.3578 25.2961C60.6434 25.2203 60.9422 25.2088 61.2328 25.2623C61.5233 25.3159 61.7985 25.4331 62.0383 25.6056C62.2782 25.7781 62.4768 26.0017 62.62 26.2601C63.4684 27.2514 64.2374 28.308 64.92 29.4201C65.7308 29.2964 66.5497 29.2329 67.37 29.2301C72.4587 29.3454 77.3001 31.4479 80.8583 35.0876C84.4164 38.7273 86.4087 43.6151 86.4087 48.7051C86.4087 53.7951 84.4164 58.6829 80.8583 62.3226C77.3001 65.9623 72.4587 68.0648 67.37 68.1801Z" fill="#256782"/>
<path d="M34.1 96.91C33.5696 96.91 33.0608 96.6993 32.6858 96.3242C32.3107 95.9492 32.1 95.4405 32.1 94.91V56.43C32.1812 55.9665 32.4232 55.5465 32.7836 55.2438C33.1439 54.9411 33.5994 54.7751 34.07 54.7751C34.5406 54.7751 34.9961 54.9411 35.3564 55.2438C35.7168 55.5465 35.9588 55.9665 36.04 56.43V94.95C36.03 95.4633 35.823 95.953 35.4618 96.3179C35.1007 96.6827 34.6131 96.8947 34.1 96.91Z" fill="#256782"/>
<path d="M51.33 96.91C50.7996 96.91 50.2908 96.6993 49.9158 96.3242C49.5407 95.9492 49.33 95.4405 49.33 94.91V56.43C49.4112 55.9665 49.6533 55.5465 50.0136 55.2438C50.3739 54.9411 50.8294 54.7751 51.3 54.7751C51.7706 54.7751 52.2261 54.9411 52.5864 55.2438C52.9467 55.5465 53.1888 55.9665 53.27 56.43V94.95C53.26 95.4633 53.0529 95.953 52.6918 96.3179C52.3307 96.6827 51.8431 96.8947 51.33 96.91Z" fill="#256782"/>
<path d="M50.45 78.82H34.96C34.5024 78.7332 34.0893 78.4894 33.7922 78.1307C33.4951 77.772 33.3325 77.3208 33.3325 76.855C33.3325 76.3892 33.4951 75.938 33.7922 75.5793C34.0893 75.2205 34.5024 74.9767 34.96 74.89H50.45C50.7391 74.8352 51.0367 74.8448 51.3216 74.9182C51.6065 74.9917 51.8717 75.127 52.0983 75.3147C52.3248 75.5023 52.5072 75.7377 52.6324 76.0039C52.7576 76.2702 52.8225 76.5608 52.8225 76.855C52.8225 77.1492 52.7576 77.4398 52.6324 77.706C52.5072 77.9723 52.3248 78.2076 52.0983 78.3953C51.8717 78.5829 51.6065 78.7183 51.3216 78.7917C51.0367 78.8651 50.7391 78.8748 50.45 78.82Z" fill="#256782"/>
<path d="M50.45 89.1601H34.96C34.5024 89.0733 34.0893 88.8295 33.7922 88.4708C33.4951 88.1121 33.3325 87.6609 33.3325 87.1951C33.3325 86.7293 33.4951 86.2781 33.7922 85.9193C34.0893 85.5606 34.5024 85.3168 34.96 85.2301H50.45C50.7391 85.1753 51.0367 85.1849 51.3216 85.2583C51.6065 85.3317 51.8717 85.4671 52.0983 85.6548C52.3248 85.8424 52.5072 86.0778 52.6324 86.344C52.7576 86.6103 52.8225 86.9009 52.8225 87.1951C52.8225 87.4893 52.7576 87.7799 52.6324 88.0461C52.5072 88.3124 52.3248 88.5477 52.0983 88.7354C51.8717 88.923 51.6065 89.0584 51.3216 89.1318C51.0367 89.2052 50.7391 89.2149 50.45 89.1601Z" fill="#256782"/>
</g>
<defs>
<clipPath id="clip0_18_746">
<rect width="86.63" height="96.91" fill="white"/>
</clipPath>
</defs>
</svg>
