<svg width="102" height="84" viewBox="0 0 102 84" fill="none" xmlns="http://www.w3.org/2000/svg">
<g clip-path="url(#clip0_18_722)">
<path d="M11.78 72.53H98.67V77.4C98.67 78.0461 98.5427 78.6859 98.2955 79.2828C98.0482 79.8798 97.6858 80.4221 97.229 80.879C96.7721 81.3359 96.2297 81.6983 95.6328 81.9455C95.0359 82.1928 94.3961 82.32 93.75 82.32H12.52C11.8739 82.32 11.2341 82.1928 10.6372 81.9455C10.0403 81.6983 9.4979 81.3359 9.04103 80.879C8.58417 80.4221 8.22176 79.8798 7.97451 79.2828C7.72726 78.6859 7.6 78.0461 7.6 77.4V76.72C7.6 75.6105 8.04007 74.5463 8.82368 73.7608C9.6073 72.9753 10.6705 72.5327 11.78 72.53Z" fill="#47C6BD"/>
<path d="M27.01 61.0902C26.5109 61.0924 26.029 60.908 25.6589 60.5731C25.2889 60.2382 25.0574 59.777 25.01 59.2802C25.01 59.0102 24.5 52.4902 27.36 47.9602C31.45 41.4502 38.86 38.8402 39.17 38.7402C39.5008 38.6295 39.8548 38.6072 40.1969 38.6756C40.539 38.744 40.8572 38.9008 41.12 39.1302C41.12 39.1302 45.84 43.2702 50.68 43.2702H50.93C54.98 43.2702 59.24 40.2702 60.54 39.1202C60.7946 38.901 61.1002 38.7494 61.4288 38.6795C61.7574 38.6096 62.0983 38.6236 62.42 38.7202C62.74 38.8102 70.27 41.1702 74.42 47.7202C77.26 52.2302 76.96 58.9002 76.94 59.1802C76.982 59.4725 76.9588 59.7704 76.872 60.0527C76.7853 60.335 76.637 60.5945 76.438 60.8127C76.239 61.0309 75.9942 61.2022 75.7211 61.3146C75.448 61.4269 75.1534 61.4774 74.8585 61.4623C74.5635 61.4473 74.2756 61.3671 74.0154 61.2276C73.7551 61.088 73.529 60.8926 73.3532 60.6553C73.1775 60.418 73.0564 60.1447 72.9988 59.8551C72.9412 59.5655 72.9484 59.2667 73.02 58.9802C73.02 58.9202 73.26 53.2702 71.09 49.8202C68.54 45.7602 64.17 43.6202 62.25 42.8202C60.31 44.2402 55.83 47.2402 50.92 47.2402H50.67C45.79 47.2402 41.37 44.3302 39.46 42.8902C35.9176 44.4171 32.8754 46.9084 30.68 50.0802C28.88 52.9402 28.8 57.4802 28.92 58.9902C28.9536 59.508 28.7847 60.0187 28.4488 60.4142C28.1129 60.8098 27.6364 61.0594 27.12 61.1102L27.01 61.0902Z" fill="#256782"/>
<path d="M50.84 36.6502C47.2055 36.6449 43.7214 35.1988 41.1514 32.6288C38.5814 30.0588 37.1353 26.5747 37.13 22.9402V14.2902C37.2265 10.7195 38.7127 7.32742 41.2724 4.83597C43.832 2.34452 47.263 0.950439 50.835 0.950439C54.407 0.950439 57.838 2.34452 60.3976 4.83597C62.9573 7.32742 64.4435 10.7195 64.54 14.2902V22.9402C64.5373 26.5738 63.0934 30.0579 60.525 32.6282C57.9567 35.1984 54.4736 36.6449 50.84 36.6502ZM50.84 4.5202C48.2496 4.52285 45.7661 5.55305 43.9345 7.3847C42.1028 9.21636 41.0726 11.6998 41.07 14.2902V22.9402C41.07 24.2232 41.3227 25.4937 41.8137 26.679C42.3047 27.8644 43.0243 28.9414 43.9316 29.8486C44.8388 30.7559 45.9158 31.4755 47.1012 31.9665C48.2865 32.4575 49.557 32.7102 50.84 32.7102C52.123 32.7102 53.3935 32.4575 54.5788 31.9665C55.7642 31.4755 56.8412 30.7559 57.7484 29.8486C58.6557 28.9414 59.3753 27.8644 59.8663 26.679C60.3573 25.4937 60.61 24.2232 60.61 22.9402V14.2902C60.6074 11.6998 59.5772 9.21636 57.7455 7.3847C55.9138 5.55305 53.4303 4.52285 50.84 4.5202Z" fill="#256782"/>
<path d="M57.13 16.0201C55.1838 15.9379 53.2631 15.5463 51.44 14.8601C50.5338 14.5255 49.5482 14.4698 48.61 14.7001C48.3619 14.8578 48.0822 14.9589 47.7906 14.9961C47.499 15.0334 47.2028 15.0059 46.9231 14.9157C46.6433 14.8255 46.3869 14.6747 46.172 14.4741C45.9572 14.2735 45.7892 14.028 45.68 13.755C45.5709 13.4821 45.5232 13.1885 45.5404 12.8951C45.5577 12.6016 45.6394 12.3156 45.7797 12.0573C45.9201 11.799 46.1156 11.5749 46.3525 11.4008C46.5893 11.2267 46.8616 11.1069 47.15 11.0501C48.9456 10.4524 50.8902 10.4771 52.67 11.1201C57.23 12.6301 58.43 12.2601 60.94 10.7501C61.3775 10.5936 61.8558 10.5943 62.2928 10.7521C62.7298 10.9099 63.0982 11.2149 63.3348 11.6148C63.5714 12.0146 63.6614 12.4843 63.5893 12.9433C63.5173 13.4023 63.2877 13.8219 62.94 14.1301C61.2224 15.2996 59.2069 15.9552 57.13 16.0201Z" fill="#256782"/>
<path d="M12.52 66.2901C11.9896 66.2901 11.4809 66.0794 11.1058 65.7043C10.7307 65.3292 10.52 64.8205 10.52 64.2901V22.5901C10.52 22.0597 10.7307 21.5509 11.1058 21.1759C11.4809 20.8008 11.9896 20.5901 12.52 20.5901H27.81C28.2677 20.6768 28.6807 20.9206 28.9778 21.2794C29.2749 21.6381 29.4375 22.0893 29.4375 22.5551C29.4375 23.0209 29.2749 23.4721 28.9778 23.8308C28.6807 24.1895 28.2677 24.4333 27.81 24.5201H14.48V64.2801C14.4827 64.8054 14.2787 65.3107 13.9119 65.6868C13.5452 66.0629 13.0452 66.2796 12.52 66.2901Z" fill="#256782"/>
<path d="M89.2 66.2902C88.6696 66.2902 88.1609 66.0795 87.7858 65.7044C87.4107 65.3293 87.2 64.8206 87.2 64.2902V24.5602H72.92C72.631 24.615 72.3334 24.6054 72.0484 24.5319C71.7635 24.4585 71.4983 24.3232 71.2718 24.1355C71.0452 23.9478 70.8628 23.7125 70.7376 23.4463C70.6124 23.18 70.5475 22.8894 70.5475 22.5952C70.5475 22.301 70.6124 22.0104 70.7376 21.7442C70.8628 21.4779 71.0452 21.2426 71.2718 21.0549C71.4983 20.8672 71.7635 20.7319 72.0484 20.6585C72.3334 20.5851 72.631 20.5754 72.92 20.6302H89.2C89.7304 20.6302 90.2392 20.8409 90.6142 21.216C90.9893 21.5911 91.2 22.0998 91.2 22.6302V64.3602C91.1819 64.8784 90.9632 65.3693 90.59 65.7294C90.2169 66.0894 89.7185 66.2905 89.2 66.2902Z" fill="#256782"/>
<path d="M93.78 83.41H8.09C5.94257 83.4047 3.88489 82.5479 2.36829 81.0276C0.851697 79.5072 1.09946e-06 77.4475 7.62943e-06 75.3C7.62943e-06 71.3 1.89 68.3 5.62 66.3C7.19 65.46 11.4 62.71 11.44 62.68C11.8724 62.4962 12.3558 62.4705 12.8053 62.6074C13.2548 62.7443 13.6417 63.0351 13.8982 63.4288C14.1547 63.8225 14.2644 64.294 14.2081 64.7605C14.1517 65.227 13.9329 65.6587 13.59 65.98C13.41 66.09 9.2 68.84 7.49 69.76C5.03 71.09 3.93 72.76 3.93 75.31C3.92999 76.4152 4.36763 77.4753 5.14721 78.2587C5.92679 79.042 6.98487 79.4847 8.09 79.49H93.78C94.8842 79.4847 95.9413 79.0417 96.7193 78.2581C97.4973 77.4744 97.9327 76.4143 97.93 75.31C98.03 74.3021 97.8358 73.2869 97.3708 72.3871C96.9058 71.4873 96.19 70.7415 95.31 70.24C94.84 69.91 91.31 67.83 88.21 66.02C87.9385 65.9162 87.6928 65.7545 87.4902 65.546C87.2875 65.3376 87.1327 65.0875 87.0366 64.8131C86.9405 64.5388 86.9053 64.2468 86.9336 63.9574C86.9619 63.6681 87.0529 63.3884 87.2003 63.1378C87.3477 62.8872 87.5479 62.6718 87.7871 62.5065C88.0262 62.3413 88.2985 62.2301 88.585 62.1808C88.8715 62.1315 89.1653 62.1453 89.446 62.2211C89.7266 62.297 89.9874 62.4331 90.21 62.62C91.3 63.25 96.77 66.43 97.63 67.06C99.0213 67.9173 100.153 69.1373 100.903 70.5889C101.654 72.0406 101.995 73.6692 101.89 75.3C101.89 77.4509 101.036 79.5137 99.5146 81.0347C97.9937 82.5556 95.9309 83.41 93.78 83.41Z" fill="#256782"/>
<path d="M80.28 63.7901H21.43C20.8996 63.7901 20.3909 63.5794 20.0158 63.2043C19.6407 62.8292 19.43 62.3205 19.43 61.7901V39.4101C19.3752 39.1211 19.3848 38.8234 19.4583 38.5385C19.5317 38.2536 19.667 37.9885 19.8547 37.7619C20.0424 37.5353 20.2777 37.3529 20.5439 37.2277C20.8102 37.1025 21.1008 37.0376 21.395 37.0376C21.6892 37.0376 21.9798 37.1025 22.246 37.2277C22.5123 37.3529 22.7476 37.5353 22.9353 37.7619C23.123 37.9885 23.2583 38.2536 23.3317 38.5385C23.4052 38.8234 23.4148 39.1211 23.36 39.4101V59.8601H78.28V32.4001C78.2252 32.1111 78.2349 31.8135 78.3083 31.5286C78.3817 31.2437 78.517 30.9784 78.7047 30.7519C78.8924 30.5253 79.1277 30.3429 79.394 30.2177C79.6602 30.0925 79.9508 30.0276 80.245 30.0276C80.5392 30.0276 80.8298 30.0925 81.096 30.2177C81.3623 30.3429 81.5976 30.5253 81.7853 30.7519C81.973 30.9784 82.1083 31.2437 82.1817 31.5286C82.2551 31.8135 82.2648 32.1111 82.21 32.4001V61.8301C82.2001 62.3417 81.9945 62.83 81.6355 63.1946C81.2765 63.5592 80.7914 63.7723 80.28 63.7901Z" fill="#256782"/>
<path d="M59.01 74.4901H43.01C42.7209 74.5449 42.4233 74.5353 42.1384 74.4619C41.8535 74.3885 41.5883 74.2531 41.3617 74.0654C41.1352 73.8778 40.9528 73.6424 40.8276 73.3762C40.7024 73.1099 40.6375 72.8194 40.6375 72.5251C40.6375 72.2309 40.7024 71.9403 40.8276 71.6741C40.9528 71.4079 41.1352 71.1725 41.3617 70.9848C41.5883 70.7972 41.8535 70.6618 42.1384 70.5884C42.4233 70.515 42.7209 70.5053 43.01 70.5601H59.01C59.2991 70.5053 59.5967 70.515 59.8816 70.5884C60.1665 70.6618 60.4317 70.7972 60.6582 70.9848C60.8848 71.1725 61.0672 71.4079 61.1924 71.6741C61.3176 71.9403 61.3825 72.2309 61.3825 72.5251C61.3825 72.8194 61.3176 73.1099 61.1924 73.3762C61.0672 73.6424 60.8848 73.8778 60.6582 74.0654C60.4317 74.2531 60.1665 74.3885 59.8816 74.4619C59.5967 74.5353 59.2991 74.5449 59.01 74.4901Z" fill="#256782"/>
</g>
<defs>
<clipPath id="clip0_18_722">
<rect width="101.87" height="82.82" fill="white" transform="translate(0 0.590088)"/>
</clipPath>
</defs>
</svg>
