<svg width="80" height="96" viewBox="0 0 80 96" fill="none" xmlns="http://www.w3.org/2000/svg">
<g clip-path="url(#clip0_18_756)">
<path d="M29.2 30.66L29.95 35.03L21.9 30.8L13.85 35.03L15.39 26.07L8.88 19.73L17.88 18.42L21.9 10.27L25.92 18.42L34.92 19.73L28.41 26.07L29.2 30.66Z" fill="#47C6BD"/>
<path d="M31.57 38.74C31.2535 38.7397 30.9417 38.6643 30.66 38.52L20.27 33.05L9.9 38.52C9.57427 38.6868 9.20903 38.7609 8.84404 38.7345C8.47904 38.708 8.12829 38.582 7.83 38.37C7.53534 38.1509 7.30669 37.8549 7.16911 37.5145C7.03152 37.174 6.99035 36.8023 7.05003 36.44L9.05003 24.87L0.639995 16.67C0.390346 16.4088 0.216144 16.0849 0.135844 15.7326C0.0555441 15.3803 0.0721475 15.0128 0.18394 14.6693C0.295732 14.3257 0.49851 14.0188 0.770732 13.7812C1.04295 13.5437 1.37447 13.3843 1.73002 13.32L13.35 11.63L18.55 1.09998C18.7155 0.771653 18.9682 0.495327 19.2804 0.30127C19.5927 0.107212 19.9524 0.00295764 20.32 0C20.6859 0.00478364 21.0435 0.109876 21.3539 0.303833C21.6642 0.49779 21.9153 0.77315 22.08 1.09998L27.28 11.63L38.9 13.32C39.2482 13.3969 39.5695 13.5654 39.8306 13.8082C40.0918 14.051 40.2832 14.3592 40.3852 14.7009C40.4872 15.0425 40.4961 15.4053 40.4107 15.7515C40.3254 16.0977 40.1491 16.4148 39.9 16.67L31.49 24.87L33.49 36.44C33.5497 36.8023 33.5085 37.174 33.3709 37.5145C33.2333 37.8549 33.0047 38.1509 32.71 38.37C32.3768 38.607 31.9789 38.7361 31.57 38.74ZM6.18998 16.64L12.49 22.77C12.7149 22.9947 12.883 23.2697 12.9804 23.5723C13.0778 23.8749 13.1017 24.1963 13.05 24.51L11.57 33.18L19.35 29.09C19.633 28.9443 19.9467 28.8684 20.265 28.8684C20.5833 28.8684 20.897 28.9443 21.18 29.09L28.96 33.18L27.48 24.51C27.4284 24.1963 27.4522 23.8749 27.5496 23.5723C27.647 23.2697 27.8151 22.9947 28.04 22.77L34.34 16.64L25.64 15.37C25.3244 15.3268 25.0243 15.2066 24.7662 15.02C24.5081 14.8334 24.2999 14.5861 24.16 14.3L20.27 6.40997L16.37 14.3C16.231 14.5849 16.0244 14.8314 15.7681 15.0179C15.5118 15.2044 15.2138 15.3253 14.9 15.37L6.18998 16.64Z" fill="#256782"/>
<path d="M47 95.46H46.76C46.2468 95.39 45.7808 95.1237 45.46 94.7171C45.1392 94.3105 44.9887 93.7953 45.04 93.2799L46.6 80.2799C46.6657 79.7975 46.9051 79.3557 47.2733 79.0372C47.6415 78.7187 48.1132 78.5455 48.6 78.5499H64.4C65.384 78.5499 66.3276 78.1591 67.0234 77.4633C67.7191 76.7676 68.11 75.8239 68.11 74.8399V60.5399C68.1153 60.0882 68.2733 59.6515 68.5584 59.3011C68.8435 58.9506 69.2388 58.707 69.6801 58.6099L74.87 57.52C75.1602 57.4588 75.4272 57.3166 75.64 57.1099L75.56 56.9799C72.16 51.7399 68.11 44.4699 68.11 39.5999V38.4299C68.16 37.6799 68.1801 37.0499 68.1801 36.4299C68.1668 28.5838 65.0399 21.0637 59.4863 15.5213C53.9326 9.97887 46.4061 6.86727 38.56 6.86993C38.1023 6.78317 37.6894 6.5394 37.3923 6.18066C37.0952 5.82193 36.9326 5.37071 36.9326 4.90491C36.9326 4.43911 37.0952 3.98795 37.3923 3.62921C37.6894 3.27048 38.1023 3.0267 38.56 2.93994C47.4459 2.94788 55.9657 6.4806 62.2499 12.7629C68.5342 19.0453 72.0694 27.5641 72.08 36.45C72.08 37.17 72.08 37.8899 72 38.5999V39.5999C72 42.5999 74.48 48.16 78.81 54.83C79.1781 55.3566 79.4139 55.9642 79.4974 56.6013C79.581 57.2383 79.5099 57.8862 79.29 58.4899C78.9683 59.2127 78.4797 59.8488 77.8643 60.346C77.2489 60.8432 76.5243 61.1873 75.75 61.3499L72 62.1299V74.7899C71.9974 76.818 71.1906 78.7623 69.7565 80.1964C68.3224 81.6304 66.3781 82.4373 64.35 82.4399H50.3L48.95 93.7199C48.8877 94.1956 48.6565 94.6331 48.2985 94.9525C47.9406 95.2719 47.4797 95.452 47 95.46Z" fill="#256782"/>
<path d="M13 95.46H12.74C12.2266 95.383 11.7632 95.1094 11.4478 94.697C11.1324 94.2846 10.9898 93.7656 11.05 93.25L15.34 60.5999C11.628 57.0246 8.78512 52.6458 7.03003 47.7999C6.88149 47.5464 6.79064 47.2634 6.76391 46.9708C6.73719 46.6782 6.77521 46.3833 6.87536 46.1071C6.97551 45.8309 7.13534 45.5801 7.34338 45.3726C7.55142 45.1652 7.80261 45.0061 8.0791 44.9067C8.35558 44.8074 8.65054 44.7701 8.94305 44.7976C9.23556 44.8252 9.5184 44.9168 9.77148 45.0661C10.0246 45.2153 10.2417 45.4184 10.4073 45.6611C10.573 45.9037 10.6832 46.1799 10.73 46.4699C12.3859 51.0356 15.1322 55.1276 18.73 58.39C18.9648 58.6037 19.1452 58.8703 19.2565 59.1677C19.3678 59.465 19.4067 59.7846 19.37 60.0999L14.94 93.77C14.8671 94.2349 14.6327 94.6592 14.2778 94.9683C13.923 95.2774 13.4705 95.4515 13 95.46Z" fill="#256782"/>
<path d="M48.56 82.4401C37.95 82.4401 35.83 78.1601 35.56 77.3001C35.4698 76.8425 35.5423 76.3679 35.765 75.9581C35.9876 75.5484 36.3464 75.2293 36.7794 75.0561C37.2124 74.8829 37.6924 74.8665 38.1362 75.0097C38.58 75.1528 38.9598 75.4465 39.21 75.84C39.32 76.03 40.9401 78.5001 48.6101 78.5001C49.0736 78.5813 49.4936 78.8234 49.7963 79.1837C50.099 79.544 50.2649 79.9995 50.2649 80.47C50.2649 80.9406 50.099 81.3962 49.7963 81.7565C49.4936 82.1168 49.0736 82.3589 48.6101 82.4401H48.56Z" fill="#256782"/>
</g>
<defs>
<clipPath id="clip0_18_756">
<rect width="79.55" height="95.46" fill="white"/>
</clipPath>
</defs>
</svg>
