<svg id="visual" viewBox="0 0 900 600" width="900" height="600" xmlns="http://www.w3.org/2000/svg" xmlns:xlink="http://www.w3.org/1999/xlink" version="1.1"><g stroke-width="1" stroke-linejoin="bevel"><path d="M430 303L478 261L373 211Z" fill="#205a61" stroke="#205a61"></path><path d="M478 261L489 211L373 211Z" fill="#187176" stroke="#187176"></path><path d="M373 211L326 239L430 303Z" fill="#224b53" stroke="#224b53"></path><path d="M489 211L362 122L373 211Z" fill="#23444b" stroke="#23444b"></path><path d="M373 211L362 122L326 239Z" fill="#0e8182" stroke="#0e8182"></path><path d="M489 211L483 96L362 122Z" fill="#187176" stroke="#187176"></path><path d="M216 168L273 321L326 239Z" fill="#1b696f" stroke="#1b696f"></path><path d="M326 239L273 321L430 303Z" fill="#205a61" stroke="#205a61"></path><path d="M273 321L369 410L430 303Z" fill="#1b696f" stroke="#1b696f"></path><path d="M430 303L515 417L478 261Z" fill="#02918e" stroke="#02918e"></path><path d="M622 281L600 191L489 211Z" fill="#21525a" stroke="#21525a"></path><path d="M489 211L600 191L483 96Z" fill="#21525a" stroke="#21525a"></path><path d="M622 281L489 211L478 261Z" fill="#205a61" stroke="#205a61"></path><path d="M322 0L282 108L362 122Z" fill="#224b53" stroke="#224b53"></path><path d="M362 122L282 108L326 239Z" fill="#224b53" stroke="#224b53"></path><path d="M369 410L515 417L430 303Z" fill="#1b696f" stroke="#1b696f"></path><path d="M515 417L622 281L478 261Z" fill="#21525a" stroke="#21525a"></path><path d="M282 108L216 168L326 239Z" fill="#1e6168" stroke="#1e6168"></path><path d="M270 522L420 467L369 410Z" fill="#205a61" stroke="#205a61"></path><path d="M369 410L420 467L515 417Z" fill="#1e6168" stroke="#1e6168"></path><path d="M190 377L273 426L273 321Z" fill="#23444b" stroke="#23444b"></path><path d="M273 321L273 426L369 410Z" fill="#13797c" stroke="#13797c"></path><path d="M622 281L663 207L600 191Z" fill="#21525a" stroke="#21525a"></path><path d="M600 0L474 0L483 96Z" fill="#13797c" stroke="#13797c"></path><path d="M624 94L483 96L600 191Z" fill="#1b696f" stroke="#1b696f"></path><path d="M483 96L363 0L362 122Z" fill="#13797c" stroke="#13797c"></path><path d="M474 0L363 0L483 96Z" fill="#205a61" stroke="#205a61"></path><path d="M282 108L186 122L216 168Z" fill="#02918e" stroke="#02918e"></path><path d="M680 122L624 94L600 191Z" fill="#088988" stroke="#088988"></path><path d="M216 168L165 301L273 321Z" fill="#02918e" stroke="#02918e"></path><path d="M363 0L322 0L362 122Z" fill="#205a61" stroke="#205a61"></path><path d="M195 0L186 122L282 108Z" fill="#13797c" stroke="#13797c"></path><path d="M106 239L133 298L165 301Z" fill="#1e6168" stroke="#1e6168"></path><path d="M165 301L190 377L273 321Z" fill="#1e6168" stroke="#1e6168"></path><path d="M424 600L499 516L420 467Z" fill="#205a61" stroke="#205a61"></path><path d="M420 467L499 516L515 417Z" fill="#1b696f" stroke="#1b696f"></path><path d="M515 417L633 436L622 281Z" fill="#0e8182" stroke="#0e8182"></path><path d="M622 281L717 261L663 207Z" fill="#088988" stroke="#088988"></path><path d="M579 504L633 436L515 417Z" fill="#088988" stroke="#088988"></path><path d="M663 207L680 122L600 191Z" fill="#0e8182" stroke="#0e8182"></path><path d="M624 94L600 0L483 96Z" fill="#23444b" stroke="#23444b"></path><path d="M776 179L680 122L663 207Z" fill="#187176" stroke="#187176"></path><path d="M106 239L165 301L216 168Z" fill="#23444b" stroke="#23444b"></path><path d="M165 301L138 392L190 377Z" fill="#224b53" stroke="#224b53"></path><path d="M670 435L717 261L622 281Z" fill="#224b53" stroke="#224b53"></path><path d="M725 0L600 0L624 94Z" fill="#224b53" stroke="#224b53"></path><path d="M499 516L579 504L515 417Z" fill="#1e6168" stroke="#1e6168"></path><path d="M190 377L211 470L273 426Z" fill="#1e6168" stroke="#1e6168"></path><path d="M273 426L270 522L369 410Z" fill="#224b53" stroke="#224b53"></path><path d="M138 392L211 470L190 377Z" fill="#224b53" stroke="#224b53"></path><path d="M708 538L670 435L633 436Z" fill="#13797c" stroke="#13797c"></path><path d="M633 436L670 435L622 281Z" fill="#21525a" stroke="#21525a"></path><path d="M186 122L106 239L216 168Z" fill="#088988" stroke="#088988"></path><path d="M133 298L138 392L165 301Z" fill="#1e6168" stroke="#1e6168"></path><path d="M211 470L270 522L273 426Z" fill="#088988" stroke="#088988"></path><path d="M0 394L138 392L133 298Z" fill="#1e6168" stroke="#1e6168"></path><path d="M322 0L195 0L282 108Z" fill="#21525a" stroke="#21525a"></path><path d="M186 122L114 103L106 239Z" fill="#02918e" stroke="#02918e"></path><path d="M195 0L114 103L186 122Z" fill="#02918e" stroke="#02918e"></path><path d="M298 600L424 600L420 467Z" fill="#21525a" stroke="#21525a"></path><path d="M499 516L593 600L579 504Z" fill="#1e6168" stroke="#1e6168"></path><path d="M424 600L461 600L499 516Z" fill="#02918e" stroke="#02918e"></path><path d="M708 538L763 417L670 435Z" fill="#13797c" stroke="#13797c"></path><path d="M796 332L776 179L717 261Z" fill="#224b53" stroke="#224b53"></path><path d="M717 261L776 179L663 207Z" fill="#088988" stroke="#088988"></path><path d="M680 122L725 0L624 94Z" fill="#0e8182" stroke="#0e8182"></path><path d="M206 600L298 600L270 522Z" fill="#088988" stroke="#088988"></path><path d="M270 522L298 600L420 467Z" fill="#13797c" stroke="#13797c"></path><path d="M206 600L270 522L211 470Z" fill="#0e8182" stroke="#0e8182"></path><path d="M708 538L633 436L579 504Z" fill="#0e8182" stroke="#0e8182"></path><path d="M670 435L763 417L717 261Z" fill="#1b696f" stroke="#1b696f"></path><path d="M763 417L796 332L717 261Z" fill="#13797c" stroke="#13797c"></path><path d="M812 73L725 0L680 122Z" fill="#02918e" stroke="#02918e"></path><path d="M461 600L593 600L499 516Z" fill="#224b53" stroke="#224b53"></path><path d="M593 600L708 538L579 504Z" fill="#205a61" stroke="#205a61"></path><path d="M91 530L206 600L211 470Z" fill="#1b696f" stroke="#1b696f"></path><path d="M106 239L0 272L133 298Z" fill="#21525a" stroke="#21525a"></path><path d="M138 392L91 530L211 470Z" fill="#1b696f" stroke="#1b696f"></path><path d="M0 203L0 272L106 239Z" fill="#02918e" stroke="#02918e"></path><path d="M0 109L0 203L114 103Z" fill="#21525a" stroke="#21525a"></path><path d="M114 103L0 203L106 239Z" fill="#23444b" stroke="#23444b"></path><path d="M776 179L812 73L680 122Z" fill="#23444b" stroke="#23444b"></path><path d="M900 99L812 73L776 179Z" fill="#224b53" stroke="#224b53"></path><path d="M195 0L65 0L114 103Z" fill="#205a61" stroke="#205a61"></path><path d="M0 466L91 530L138 392Z" fill="#1e6168" stroke="#1e6168"></path><path d="M65 0L0 109L114 103Z" fill="#0e8182" stroke="#0e8182"></path><path d="M0 272L0 394L133 298Z" fill="#1b696f" stroke="#1b696f"></path><path d="M593 600L695 600L708 538Z" fill="#088988" stroke="#088988"></path><path d="M900 395L796 332L763 417Z" fill="#1b696f" stroke="#1b696f"></path><path d="M900 304L900 225L796 332Z" fill="#088988" stroke="#088988"></path><path d="M812 73L815 0L725 0Z" fill="#205a61" stroke="#205a61"></path><path d="M0 394L0 466L138 392Z" fill="#1e6168" stroke="#1e6168"></path><path d="M900 304L796 332L900 395Z" fill="#205a61" stroke="#205a61"></path><path d="M796 332L900 225L776 179Z" fill="#13797c" stroke="#13797c"></path><path d="M812 73L900 0L815 0Z" fill="#224b53" stroke="#224b53"></path><path d="M831 514L763 417L708 538Z" fill="#1e6168" stroke="#1e6168"></path><path d="M0 600L90 600L91 530Z" fill="#13797c" stroke="#13797c"></path><path d="M91 530L90 600L206 600Z" fill="#1b696f" stroke="#1b696f"></path><path d="M65 0L0 0L0 109Z" fill="#23444b" stroke="#23444b"></path><path d="M817 600L831 514L708 538Z" fill="#088988" stroke="#088988"></path><path d="M900 225L900 99L776 179Z" fill="#187176" stroke="#187176"></path><path d="M831 514L900 395L763 417Z" fill="#1b696f" stroke="#1b696f"></path><path d="M695 600L817 600L708 538Z" fill="#205a61" stroke="#205a61"></path><path d="M831 514L900 495L900 395Z" fill="#187176" stroke="#187176"></path><path d="M900 99L900 0L812 73Z" fill="#23444b" stroke="#23444b"></path><path d="M900 600L900 495L831 514Z" fill="#0e8182" stroke="#0e8182"></path><path d="M0 466L0 600L91 530Z" fill="#02918e" stroke="#02918e"></path><path d="M817 600L900 600L831 514Z" fill="#0e8182" stroke="#0e8182"></path></g></svg>