<svg width="111" height="114" viewBox="0 0 111 114" fill="none" xmlns="http://www.w3.org/2000/svg">
<g clip-path="url(#clip0_18_713)">
<path d="M2.01998 113.52C1.52089 113.522 1.03897 113.338 0.668909 113.003C0.29885 112.668 0.0673932 112.207 0.0199835 111.71C0.0199835 111.37 -0.619992 103.25 2.92001 97.62C8.04001 89.49 17.3 86.23 17.69 86.09C18.0286 85.9711 18.3929 85.9455 18.7448 86.0159C19.0967 86.0863 19.4231 86.25 19.69 86.49C19.75 86.54 25.85 91.9 32.23 91.9H32.54C38.93 91.9 45.08 86.53 45.14 86.48C45.3936 86.2591 45.6988 86.1057 46.0274 86.034C46.356 85.9624 46.6974 85.9747 47.02 86.07C47.42 86.19 56.82 89.14 61.96 97.31C65.49 102.91 65.11 111.23 65.09 111.58C64.9827 112.036 64.7189 112.439 64.3446 112.721C63.9703 113.002 63.5092 113.143 63.0416 113.119C62.574 113.095 62.1296 112.908 61.7857 112.59C61.4419 112.273 61.2205 111.844 61.16 111.38C61.16 111.31 61.49 103.94 58.63 99.38C55.17 93.88 49.16 91.08 46.83 90.16C44.64 91.87 38.83 95.81 32.54 95.81H32.23C25.94 95.81 20.23 91.91 18.03 90.19C15.69 91.19 9.77001 94.19 6.30001 99.69C3.46001 104.2 3.98001 111.3 3.99002 111.37C4.02364 111.888 3.85463 112.398 3.51876 112.794C3.18289 113.19 2.70641 113.439 2.18997 113.49L2.01998 113.52Z" fill="#256782"/>
<path d="M32.47 86.3901C30.242 86.3979 28.0344 85.9663 25.9735 85.1197C23.9126 84.2732 22.039 83.0285 20.4598 81.4568C18.8807 79.8851 17.6272 78.0173 16.7709 75.9605C15.9147 73.9036 15.4726 71.698 15.47 69.4701V58.47C15.47 53.9826 17.2526 49.6789 20.4257 46.5058C23.5988 43.3327 27.9025 41.55 32.39 41.55C36.8774 41.55 41.1811 43.3327 44.3542 46.5058C47.5273 49.6789 49.31 53.9826 49.31 58.47V69.4701C49.3048 73.9421 47.5314 78.2306 44.3767 81.4003C41.222 84.57 36.9419 86.3637 32.47 86.3901ZM32.47 45.47C29.0222 45.47 25.7156 46.8397 23.2776 49.2777C20.8396 51.7156 19.47 55.0222 19.47 58.47V69.4701C19.47 72.9179 20.8396 76.2245 23.2776 78.6624C25.7156 81.1004 29.0222 82.4701 32.47 82.4701C35.9178 82.4701 39.2244 81.1004 41.6624 78.6624C44.1003 76.2245 45.47 72.9179 45.47 69.4701V58.47C45.47 55.0222 44.1003 51.7156 41.6624 49.2777C39.2244 46.8397 35.9178 45.47 32.47 45.47Z" fill="#256782"/>
<path d="M47.47 113.52C46.9709 113.522 46.489 113.338 46.1189 113.003C45.7489 112.668 45.5174 112.207 45.47 111.71C45.47 111.37 44.83 103.25 48.38 97.62C53.49 89.49 62.75 86.23 63.14 86.09C63.4786 85.9711 63.8429 85.9455 64.1948 86.0159C64.5467 86.0863 64.8732 86.25 65.14 86.49C65.2 86.54 71.3 91.9 77.68 91.9H77.99C84.38 91.9 90.53 86.53 90.6 86.48C90.8526 86.2608 91.1561 86.1083 91.4828 86.0367C91.8094 85.9651 92.1489 85.9765 92.47 86.07C92.87 86.19 102.27 89.14 107.41 97.31C110.94 102.91 110.56 111.23 110.54 111.58C110.433 112.036 110.169 112.439 109.795 112.721C109.42 113.002 108.959 113.143 108.492 113.119C108.024 113.095 107.58 112.908 107.236 112.59C106.892 112.273 106.671 111.844 106.61 111.38C106.61 111.31 106.94 103.94 104.09 99.38C100.62 93.88 94.61 91.08 92.28 90.16C90.09 91.87 84.28 95.81 77.99 95.81H77.68C71.39 95.81 65.68 91.91 63.48 90.19C61.14 91.19 55.22 94.19 51.75 99.69C48.91 104.2 49.44 111.3 49.44 111.37C49.4736 111.888 49.3047 112.398 48.9688 112.794C48.6329 113.19 48.1564 113.439 47.64 113.49L47.47 113.52Z" fill="#256782"/>
<path d="M77.84 86.3901C73.3542 86.3848 69.0536 84.6004 65.8817 81.4284C62.7097 78.2565 60.9253 73.9559 60.92 69.4701V58.47C60.92 53.9826 62.7027 49.6789 65.8758 46.5058C69.0489 43.3327 73.3526 41.55 77.84 41.55C82.3275 41.55 86.6311 43.3327 89.8043 46.5058C92.9774 49.6789 94.76 53.9826 94.76 58.47V69.4701C94.7547 73.9559 92.9704 78.2565 89.7985 81.4284C86.6265 84.6004 82.3259 86.3848 77.84 86.3901ZM77.84 45.47C74.3922 45.47 71.0856 46.8397 68.6476 49.2777C66.2097 51.7156 64.84 55.0222 64.84 58.47V69.4701C64.84 72.9179 66.2097 76.2245 68.6476 78.6624C71.0856 81.1004 74.3922 82.4701 77.84 82.4701C81.2878 82.4701 84.5944 81.1004 87.0324 78.6624C89.4704 76.2245 90.84 72.9179 90.84 69.4701V58.47C90.84 55.0222 89.4704 51.7156 87.0324 49.2777C84.5944 46.8397 81.2878 45.47 77.84 45.47Z" fill="#256782"/>
<path d="M76.11 17.8C76.0921 15.8314 75.3266 13.9432 73.9686 12.5178C72.6107 11.0924 70.7617 10.2365 68.7963 10.1234C66.8308 10.0102 64.8959 10.6483 63.3833 11.9084C61.8707 13.1685 60.8937 14.9564 60.65 16.91C60.4254 14.9426 59.4563 13.1357 57.9415 11.8603C56.4267 10.5849 54.4812 9.93777 52.5043 10.0517C50.5274 10.1655 48.669 11.0318 47.3107 12.4727C45.9524 13.9136 45.1971 15.8198 45.2 17.8C45.19 17.9765 45.19 18.1534 45.2 18.33C45.2 29.15 60.65 37.92 60.65 37.92C60.65 37.92 76.11 29.15 76.11 18.33C76.09 18.15 76.11 17.98 76.11 17.8Z" fill="#47C6BD"/>
<path d="M56.66 42.4099C56.309 42.4178 55.9627 42.3278 55.66 42.1499C54.74 41.6399 33.34 29.3099 33.34 13.4199C33.3348 13.3367 33.3348 13.2532 33.34 13.1699C33.34 13.0099 33.34 12.8499 33.34 12.6899C33.3317 9.95508 34.2071 7.29076 35.8359 5.09383C37.4646 2.8969 39.7595 1.28493 42.3787 0.498047C44.9979 -0.288833 47.8012 -0.208511 50.371 0.727044C52.9409 1.6626 55.1397 3.40332 56.64 5.6899C58.1402 3.40332 60.3391 1.6626 62.9089 0.727044C65.4788 -0.208511 68.2821 -0.288833 70.9012 0.498047C73.5204 1.28493 75.8153 2.8969 77.4441 5.09383C79.0728 7.29076 79.9482 9.95508 79.9399 12.6899C79.9399 12.8499 79.9399 13.0099 79.9399 13.1699C79.9452 13.2532 79.9452 13.3367 79.9399 13.4199C79.9399 29.3099 58.5399 41.6399 57.6299 42.1499C57.334 42.3177 57.0002 42.4071 56.66 42.4099ZM37.37 13.7799C37.67 25.4299 52.63 35.5599 56.66 38.0799C60.66 35.5599 75.66 25.4199 75.96 13.7599C75.9401 13.6005 75.9401 13.4393 75.96 13.2799V13.1599C75.96 12.9999 75.96 12.8499 75.96 12.6899C75.9786 10.462 75.1398 8.31232 73.6173 6.68576C72.0948 5.0592 70.0051 4.08036 67.7809 3.95187C65.5567 3.82337 63.3682 4.55506 61.6685 5.99548C59.9688 7.43589 58.888 9.47471 58.65 11.6899C58.65 12.2203 58.4393 12.729 58.0642 13.1041C57.6891 13.4792 57.1804 13.6899 56.65 13.6899C56.1195 13.6899 55.6109 13.4792 55.2358 13.1041C54.8607 12.729 54.65 12.2203 54.65 11.6899C54.3902 9.49049 53.3005 7.47325 51.6035 6.05026C49.9064 4.62728 47.7301 3.90593 45.519 4.03359C43.308 4.16124 41.2292 5.12827 39.7072 6.73711C38.1852 8.34596 37.3349 10.4752 37.33 12.6899C37.33 12.8499 37.33 12.9999 37.33 13.1599V13.2799C37.3682 13.4436 37.3818 13.6122 37.37 13.7799Z" fill="#256782"/>
</g>
<defs>
<clipPath id="clip0_18_713">
<rect width="110.51" height="113.52" fill="white"/>
</clipPath>
</defs>
</svg>
