<svg width="98" height="88" viewBox="0 0 98 88" fill="none" xmlns="http://www.w3.org/2000/svg">
<g clip-path="url(#clip0_149_137)">
<path d="M15.31 61.485C17.613 61.485 19.48 59.618 19.48 57.315C19.48 55.012 17.613 53.145 15.31 53.145C13.007 53.145 11.14 55.012 11.14 57.315C11.14 59.618 13.007 61.485 15.31 61.485Z" fill="#47C6BD"/>
<path d="M50.6 61.485C52.903 61.485 54.77 59.618 54.77 57.315C54.77 55.012 52.903 53.145 50.6 53.145C48.297 53.145 46.43 55.012 46.43 57.315C46.43 59.618 48.297 61.485 50.6 61.485Z" fill="#47C6BD"/>
<path d="M85.89 61.485C88.193 61.485 90.06 59.618 90.06 57.315C90.06 55.012 88.193 53.145 85.89 53.145C83.587 53.145 81.72 55.012 81.72 57.315C81.72 59.618 83.587 61.485 85.89 61.485Z" fill="#47C6BD"/>
<path d="M32.95 14.8048C35.253 14.8048 37.12 12.9379 37.12 10.6348C37.12 8.33182 35.253 6.46484 32.95 6.46484C30.647 6.46484 28.78 8.33182 28.78 10.6348C28.78 12.9379 30.647 14.8048 32.95 14.8048Z" fill="#47C6BD"/>
<path d="M68.25 14.8048C70.553 14.8048 72.42 12.9379 72.42 10.6348C72.42 8.33182 70.553 6.46484 68.25 6.46484C65.947 6.46484 64.08 8.33182 64.08 10.6348C64.08 12.9379 65.947 14.8048 68.25 14.8048Z" fill="#47C6BD"/>
<path d="M13.81 65.055C12.03 65.055 10.2899 64.5271 8.80988 63.5382C7.32984 62.5492 6.17625 61.1436 5.49506 59.4991C4.81387 57.8546 4.63571 56.0449 4.98297 54.2991C5.33024 52.5533 6.18731 50.9497 7.44599 49.691C8.70466 48.4323 10.3083 47.5751 12.0541 47.2279C13.8 46.8806 15.6096 47.0588 17.2541 47.74C18.8986 48.4212 20.3042 49.5748 21.2932 51.0548C22.2821 52.5349 22.81 54.2749 22.81 56.055C22.7943 58.4371 21.841 60.7171 20.1566 62.4015C18.4721 64.0859 16.1921 65.0392 13.81 65.055ZM13.81 50.8849C12.7974 50.8849 11.8075 51.1852 10.9655 51.7478C10.1235 52.3104 9.4673 53.1101 9.07978 54.0456C8.69226 54.9812 8.59084 56.0106 8.78839 57.0038C8.98595 57.997 9.47359 58.9093 10.1896 59.6253C10.9057 60.3414 11.8179 60.829 12.8111 61.0266C13.8043 61.2241 14.8338 61.1227 15.7694 60.7352C16.7049 60.3477 17.5045 59.6914 18.0671 58.8495C18.6297 58.0075 18.93 57.0175 18.93 56.0049C18.9274 54.6478 18.387 53.3471 17.4274 52.3875C16.4678 51.4279 15.1671 50.8876 13.81 50.8849Z" fill="#1B5A7A"/>
<path d="M1.97005 87.9349H1.75996C1.24505 87.8696 0.775692 87.6068 0.451004 87.2018C0.126315 86.7969 -0.028259 86.2816 0.0199733 85.7648C1.42997 72.9348 8.30001 70.2449 13.81 70.2449C25.81 70.2449 27.1 81.5948 27.52 85.3248C27.4878 85.7917 27.2929 86.2325 26.9692 86.5705C26.6455 86.9085 26.2134 87.1223 25.7484 87.1746C25.2833 87.227 24.8146 87.1145 24.4239 86.8569C24.0332 86.5993 23.7451 86.2129 23.6099 85.7648C22.6899 77.6448 19.76 74.1749 13.81 74.1749C10.13 74.1749 5.11001 75.4249 3.93001 86.1749C3.87191 86.6559 3.6412 87.0994 3.28072 87.4231C2.92023 87.7468 2.4545 87.9287 1.97005 87.9349Z" fill="#1B5A7A"/>
<path d="M48.96 65.055C47.18 65.055 45.4399 64.5271 43.9599 63.5382C42.4798 62.5492 41.3262 61.1436 40.6451 59.4991C39.9639 57.8546 39.7856 56.0449 40.1328 54.2991C40.4801 52.5533 41.3373 50.9497 42.596 49.691C43.8547 48.4323 45.4583 47.5751 47.2041 47.2279C48.95 46.8806 50.7596 47.0588 52.4041 47.74C54.0486 48.4212 55.4542 49.5748 56.4431 51.0548C57.4321 52.5349 57.96 54.2749 57.96 56.055C57.9469 58.4379 56.9943 60.7194 55.3094 62.4044C53.6244 64.0894 51.3429 65.0418 48.96 65.055ZM48.96 50.8849C47.9474 50.8849 46.9574 51.1852 46.1154 51.7478C45.2734 52.3104 44.6172 53.1101 44.2296 54.0456C43.8421 54.9812 43.7408 56.0106 43.9384 57.0038C44.1359 57.997 44.6235 58.9093 45.3395 59.6253C46.0556 60.3414 46.9679 60.829 47.9611 61.0266C48.9543 61.2241 49.9838 61.1227 50.9193 60.7352C51.8549 60.3477 52.6545 59.6914 53.2171 58.8495C53.7797 58.0075 54.08 57.0175 54.08 56.0049C54.08 54.647 53.5405 53.3447 52.5804 52.3845C51.6202 51.4244 50.3179 50.8849 48.96 50.8849Z" fill="#1B5A7A"/>
<path d="M37.13 87.9349H36.91C36.3951 87.8696 35.9257 87.6068 35.601 87.2018C35.2763 86.7969 35.1218 86.2816 35.17 85.7648C36.58 72.9348 43.45 70.2449 48.96 70.2449C60.96 70.2449 62.25 81.5948 62.68 85.3248C62.6478 85.7917 62.4528 86.2325 62.1291 86.5705C61.8054 86.9085 61.3735 87.1223 60.9084 87.1746C60.4433 87.227 59.9747 87.1145 59.5839 86.8569C59.1932 86.5993 58.9052 86.2129 58.77 85.7648C57.84 77.6448 54.91 74.1749 48.96 74.1749C45.29 74.1749 40.27 75.4249 39.08 86.1749C39.0222 86.6542 38.7928 87.0964 38.4344 87.4199C38.076 87.7433 37.6127 87.9263 37.13 87.9349Z" fill="#1B5A7A"/>
<path d="M84.29 65.055C82.51 65.055 80.7699 64.5271 79.2899 63.5382C77.8098 62.5492 76.6562 61.1436 75.975 59.4991C75.2939 57.8546 75.1157 56.0449 75.463 54.2991C75.8102 52.5533 76.6673 50.9497 77.926 49.691C79.1846 48.4323 80.7883 47.5751 82.5341 47.2279C84.28 46.8806 86.0895 47.0588 87.7341 47.74C89.3786 48.4212 90.7843 49.5748 91.7733 51.0548C92.7622 52.5349 93.29 54.2749 93.29 56.055C93.2743 58.4371 92.321 60.7171 90.6365 62.4015C88.9521 64.0859 86.6721 65.0392 84.29 65.055ZM84.29 50.8849C83.2773 50.8849 82.2875 51.1852 81.4455 51.7478C80.6035 52.3104 79.9473 53.1101 79.5598 54.0456C79.1722 54.9812 79.0708 56.0106 79.2684 57.0038C79.4659 57.997 79.9536 58.9093 80.6696 59.6253C81.3857 60.3414 82.2979 60.829 83.2911 61.0266C84.2843 61.2241 85.3138 61.1227 86.2493 60.7352C87.1849 60.3477 87.9845 59.6914 88.5471 58.8495C89.1097 58.0075 89.41 57.0175 89.41 56.0049C89.4073 54.6478 88.867 53.3471 87.9074 52.3875C86.9478 51.4279 85.6471 50.8876 84.29 50.8849Z" fill="#1B5A7A"/>
<path d="M72.42 87.9349H72.21C71.6951 87.8696 71.2257 87.6068 70.901 87.2018C70.5763 86.7969 70.4218 86.2816 70.4701 85.7648C71.8801 72.9348 78.74 70.2449 84.26 70.2449C96.26 70.2449 97.5501 81.5948 97.9701 85.3248C98.0305 85.839 97.8892 86.3566 97.5759 86.7688C97.2626 87.181 96.8016 87.4556 96.29 87.5349C95.7731 87.586 95.2566 87.4341 94.8497 87.1112C94.4428 86.7883 94.1775 86.3199 94.11 85.8049C93.19 77.6849 90.26 74.2148 84.31 74.2148C80.63 74.2148 75.61 75.4648 74.43 86.2148C74.3619 86.6971 74.12 87.138 73.75 87.4547C73.3799 87.7713 72.907 87.9421 72.42 87.9349Z" fill="#1B5A7A"/>
<path d="M31.29 18.1751C29.4958 18.185 27.7392 17.6613 26.2433 16.6707C24.7474 15.6801 23.5798 14.2672 22.8886 12.6115C22.1974 10.9558 22.014 9.13203 22.3616 7.37186C22.7092 5.61168 23.5721 3.99456 24.8408 2.72589C26.1094 1.45722 27.7266 0.594274 29.4867 0.246673C31.2469 -0.100927 33.0707 0.0824887 34.7264 0.773651C36.3821 1.46481 37.795 2.63252 38.7856 4.12842C39.7762 5.62432 40.2999 7.38094 40.29 9.17508C40.2768 11.558 39.3244 13.8395 37.6395 15.5245C35.9545 17.2095 33.6729 18.162 31.29 18.1751ZM31.29 4.01508C30.2769 4.0131 29.286 4.31169 28.4427 4.87308C27.5994 5.43447 26.9416 6.23341 26.5525 7.16879C26.1635 8.10417 26.0607 9.13394 26.2571 10.1278C26.4536 11.1216 26.9404 12.0348 27.6561 12.7519C28.3717 13.4689 29.2839 13.9576 30.2774 14.1559C31.2709 14.3543 32.3009 14.2535 33.237 13.8663C34.1731 13.479 34.9734 12.8228 35.5364 11.9806C36.0995 11.1384 36.4 10.1481 36.4 9.13507C36.4 7.77889 35.8619 6.47812 34.9039 5.51822C33.9458 4.55832 32.6461 4.01772 31.29 4.01508Z" fill="#1B5A7A"/>
<path d="M19.4799 41.055H19.29C18.7751 40.9898 18.3057 40.7269 17.981 40.322C17.6563 39.917 17.5018 39.4017 17.55 38.8849C18.97 26.0549 25.8301 23.365 31.3501 23.365C43.3501 23.365 44.63 34.7149 45.06 38.4449C45.0297 38.9125 44.8361 39.3546 44.5131 39.694C44.1902 40.0335 43.7583 40.2487 43.2928 40.3023C42.8273 40.3559 42.3579 40.2443 41.9663 39.9871C41.5746 39.7299 41.2857 39.3434 41.15 38.895C40.23 30.765 37.2901 27.305 31.3501 27.305C27.6701 27.305 22.65 28.545 21.46 39.305C21.3992 39.7876 21.1646 40.2314 20.8001 40.5535C20.4357 40.8756 19.9663 41.0539 19.4799 41.055Z" fill="#1B5A7A"/>
<path d="M66.6099 18.1751C64.8158 18.185 63.0592 17.6613 61.5633 16.6707C60.0674 15.6801 58.8997 14.2672 58.2086 12.6115C57.5174 10.9558 57.334 9.13203 57.6816 7.37186C58.0292 5.61168 58.8922 3.99456 60.1608 2.72589C61.4295 1.45722 63.0466 0.594274 64.8068 0.246673C66.567 -0.100927 68.3908 0.0824887 70.0464 0.773651C71.7021 1.46481 73.115 2.63252 74.1057 4.12842C75.0963 5.62432 75.6198 7.38094 75.6099 9.17508C75.5968 11.558 74.6444 13.8395 72.9594 15.5245C71.2744 17.2095 68.9928 18.162 66.6099 18.1751ZM66.6099 4.01508C65.5973 4.01508 64.6074 4.31534 63.7654 4.87793C62.9235 5.44052 62.2672 6.24016 61.8797 7.17572C61.4922 8.11128 61.3908 9.14076 61.5883 10.1339C61.7859 11.1271 62.2735 12.0394 62.9896 12.7555C63.7056 13.4715 64.618 13.9591 65.6111 14.1567C66.6043 14.3542 67.6337 14.2528 68.5693 13.8653C69.5048 13.4778 70.3045 12.8216 70.8671 11.9796C71.4297 11.1376 71.7299 10.1477 71.7299 9.13507C71.7312 8.46233 71.5998 7.79595 71.343 7.17416C71.0861 6.55238 70.709 5.98745 70.2333 5.51175C69.7576 5.03605 69.1926 4.65897 68.5709 4.40213C67.9491 4.14529 67.2827 4.01376 66.6099 4.01508Z" fill="#1B5A7A"/>
<path d="M54.78 41.055H54.56C54.0451 40.9898 53.5757 40.7269 53.2511 40.322C52.9264 39.917 52.7718 39.4017 52.82 38.8849C54.23 26.0549 61.0999 23.365 66.6099 23.365C78.6099 23.365 79.9 34.7149 80.32 38.4449C80.3712 38.9618 80.2192 39.4784 79.8963 39.8853C79.5734 40.2921 79.105 40.5574 78.59 40.625C78.0732 40.6762 77.5566 40.5242 77.1497 40.2014C76.7429 39.8785 76.4776 39.4099 76.41 38.895C75.49 30.765 72.5599 27.305 66.6099 27.305C62.9399 27.305 57.9099 28.545 56.7299 39.305C56.6699 39.7825 56.4397 40.2223 56.0815 40.5438C55.7233 40.8652 55.2612 41.0467 54.78 41.055Z" fill="#1B5A7A"/>
</g>
<defs>
<clipPath id="clip0_149_137">
<rect width="97.98" height="87.85" fill="white" transform="translate(0 0.0749512)"/>
</clipPath>
</defs>
</svg>
