<svg width="94" height="74" viewBox="0 0 94 74" fill="none" xmlns="http://www.w3.org/2000/svg">
<g clip-path="url(#clip0_18_734)">
<path d="M87 14H10V30H87V14Z" fill="#47C6BD"/>
<path d="M85.39 73.2449H2C1.46957 73.2449 0.960888 73.0342 0.585815 72.6591C0.210743 72.284 0 71.7753 0 71.2449V6.50488C0 5.97445 0.210743 5.46574 0.585815 5.09067C0.960888 4.71559 1.46957 4.50488 2 4.50488H85.39C85.9204 4.50488 86.4292 4.71559 86.8043 5.09067C87.1793 5.46574 87.39 5.97445 87.39 6.50488V71.2449C87.39 71.7753 87.1793 72.284 86.8043 72.6591C86.4292 73.0342 85.9204 73.2449 85.39 73.2449ZM4 69.2449H83.39V8.50488H4V69.2449Z" fill="#256782"/>
<path d="M27.12 37.8948H24.59C22.9497 37.8948 21.62 39.2245 21.62 40.8648V41.4948C21.62 43.1351 22.9497 44.4648 24.59 44.4648H27.12C28.7603 44.4648 30.09 43.1351 30.09 41.4948V40.8648C30.09 39.2245 28.7603 37.8948 27.12 37.8948Z" fill="#256782"/>
<path d="M45.22 37.8948H42.69C41.0497 37.8948 39.72 39.2245 39.72 40.8648V41.4948C39.72 43.1351 41.0497 44.4648 42.69 44.4648H45.22C46.8603 44.4648 48.19 43.1351 48.19 41.4948V40.8648C48.19 39.2245 46.8603 37.8948 45.22 37.8948Z" fill="#256782"/>
<path d="M63.31 37.8948H60.78C59.1397 37.8948 57.81 39.2245 57.81 40.8648V41.4948C57.81 43.1351 59.1397 44.4648 60.78 44.4648H63.31C64.9503 44.4648 66.28 43.1351 66.28 41.4948V40.8648C66.28 39.2245 64.9503 37.8948 63.31 37.8948Z" fill="#256782"/>
<path d="M27.12 51.5449H24.59C22.9497 51.5449 21.62 52.8746 21.62 54.5149V55.1449C21.62 56.7852 22.9497 58.1149 24.59 58.1149H27.12C28.7603 58.1149 30.09 56.7852 30.09 55.1449V54.5149C30.09 52.8746 28.7603 51.5449 27.12 51.5449Z" fill="#256782"/>
<path d="M45.22 51.5449H42.69C41.0497 51.5449 39.72 52.8746 39.72 54.5149V55.1449C39.72 56.7852 41.0497 58.1149 42.69 58.1149H45.22C46.8603 58.1149 48.19 56.7852 48.19 55.1449V54.5149C48.19 52.8746 46.8603 51.5449 45.22 51.5449Z" fill="#256782"/>
<path d="M63.31 51.5449H60.78C59.1397 51.5449 57.81 52.8746 57.81 54.5149V55.1449C57.81 56.7852 59.1397 58.1149 60.78 58.1149H63.31C64.9503 58.1149 66.28 56.7852 66.28 55.1449V54.5149C66.28 52.8746 64.9503 51.5449 63.31 51.5449Z" fill="#256782"/>
<path d="M85.39 24.2049H2C1.46957 24.2049 0.960888 23.9942 0.585815 23.6191C0.210743 23.244 0 22.7353 0 22.2049V6.50488C0 5.97445 0.210743 5.46574 0.585815 5.09067C0.960888 4.71559 1.46957 4.50488 2 4.50488H85.39C85.9204 4.50488 86.4292 4.71559 86.8043 5.09067C87.1793 5.46574 87.39 5.97445 87.39 6.50488V22.2049C87.39 22.7353 87.1793 23.244 86.8043 23.6191C86.4292 23.9942 85.9204 24.2049 85.39 24.2049ZM4 20.2049H83.39V8.50488H4V20.2049Z" fill="#256782"/>
</g>
<defs>
<clipPath id="clip0_18_734">
<rect width="93.57" height="72.49" fill="white" transform="translate(0 0.754883)"/>
</clipPath>
</defs>
</svg>
