<svg width="268" height="173" viewBox="0 0 268 173" fill="none" xmlns="http://www.w3.org/2000/svg">
<g clip-path="url(#clip0_18_335)">
<path d="M112.385 130.927C103.568 125.357 110.438 122.862 118.65 122.479C114.639 118.324 117.067 114.014 126.836 108.821C131.22 106.493 136.591 107.402 141.874 109.854C145.877 101.067 151.314 94.9171 157.658 97.7814C162.919 100.14 166.813 103.115 169.259 106.379C170.873 105.582 172.613 104.825 174.481 104.107C178.537 102.552 181.557 103.431 183.741 105.772C191.677 100.242 199.726 96.8193 204.501 100.101C212.801 105.812 213.936 110.961 208.587 116.399C216.79 116.268 222.985 118.846 212.331 126.394C222.06 124.733 229.023 125.471 224.915 132.105C215.756 146.852 172.087 151.557 139.419 146.773C118.812 146.663 101.661 143.439 98.3023 136.379C95.8426 131.169 103.024 130.145 112.385 130.927Z" fill="#B7E5DA"/>
<path d="M17.8313 147.757C16.0776 144.212 18.2215 141.031 26.4159 139.028C35.3557 136.832 43.9096 137.675 50.9685 139.582C34.3341 129.337 14.9244 114.774 32.5541 112.204C38.0565 111.404 46.5359 114.668 55.9799 119.94C45.4223 108.725 39.6042 99.3805 45.9572 97.3158C51.8585 95.3916 63.9331 104.345 76.832 116.395C69.475 106.155 65.2046 97.1225 68.4666 92.624C71.1323 88.9513 76.8627 92.7733 83.4699 100.031C83.1499 93.4059 85.1711 89.3028 89.8361 89.9266C94.2205 90.4845 97.8069 98.0143 100.385 107.121C104.524 92.624 115.59 83.3985 126.814 87.238C139.998 91.7497 129.581 126.499 123.745 143.061L17.8313 147.757Z" fill="#B7E5DA"/>
<path d="M236.722 121.232C232.552 123.084 228.895 125.926 226.068 129.513C223.241 133.1 221.33 137.324 220.5 141.818C224.373 144.238 228.778 145.673 233.331 145.997C237.884 146.321 242.448 145.524 246.623 143.676C250.799 141.828 254.46 138.985 257.288 135.395C260.116 131.805 262.025 127.576 262.848 123.077C258.972 120.664 254.566 119.234 250.013 118.913C245.46 118.591 240.898 119.387 236.722 121.232Z" fill="#47C6BD"/>
<path d="M259.437 124.421L222.052 140.97" stroke="white" stroke-width="1.18" stroke-miterlimit="10"/>
<path d="M251.747 127.878L258.017 130.848" stroke="white" stroke-width="1.18" stroke-miterlimit="10"/>
<path d="M245.372 130.703L253.102 134.358" stroke="white" stroke-width="1.18" stroke-miterlimit="10"/>
<path d="M238.997 133.523L251.922 139.634" stroke="white" stroke-width="1.18" stroke-miterlimit="10"/>
<path d="M232.622 136.344L245.197 142.292" stroke="white" stroke-width="1.18" stroke-miterlimit="10"/>
<path d="M226.247 139.169L233.249 142.477" stroke="white" stroke-width="1.18" stroke-miterlimit="10"/>
<path d="M252.466 127.426L254.5 120.784" stroke="white" stroke-width="1.18" stroke-miterlimit="10"/>
<path d="M246.091 130.251L249.261 119.892" stroke="white" stroke-width="1.18" stroke-miterlimit="10"/>
<path d="M239.716 133.071L243.689 120.103" stroke="white" stroke-width="1.18" stroke-miterlimit="10"/>
<path d="M233.346 135.892L237.419 122.572" stroke="white" stroke-width="1.18" stroke-miterlimit="10"/>
<path d="M226.967 138.712L230.47 127.272" stroke="white" stroke-width="1.18" stroke-miterlimit="10"/>
<path d="M208.416 118.583C205.566 122.746 203.772 127.543 203.189 132.557C202.606 137.572 203.252 142.654 205.071 147.362C210.111 147.385 215.08 146.173 219.546 143.832C224.013 141.491 227.84 138.092 230.696 133.931C233.551 129.769 235.349 124.972 235.931 119.955C236.514 114.939 235.864 109.856 234.038 105.149C229 105.132 224.033 106.347 219.568 108.688C215.103 111.029 211.276 114.425 208.416 118.583Z" fill="#47C6BD"/>
<path d="M231.623 108.386L206.04 145.666" stroke="white" stroke-width="1.3" stroke-miterlimit="10"/>
<path d="M226.392 116.105L234.008 115.253" stroke="white" stroke-width="1.3" stroke-miterlimit="10"/>
<path d="M222.03 122.462L231.417 121.412" stroke="white" stroke-width="1.3" stroke-miterlimit="10"/>
<path d="M217.667 128.819L233.359 127.062" stroke="white" stroke-width="1.3" stroke-miterlimit="10"/>
<path d="M213.305 135.176L228.571 133.467" stroke="white" stroke-width="1.3" stroke-miterlimit="10"/>
<path d="M208.942 141.532L217.444 140.579" stroke="white" stroke-width="1.3" stroke-miterlimit="10"/>
<path d="M226.804 115.262L224.875 107.833" stroke="white" stroke-width="1.3" stroke-miterlimit="10"/>
<path d="M222.446 121.618L219.434 110.034" stroke="white" stroke-width="1.3" stroke-miterlimit="10"/>
<path d="M218.084 127.975L214.313 113.474" stroke="white" stroke-width="1.3" stroke-miterlimit="10"/>
<path d="M213.721 134.332L209.85 119.435" stroke="white" stroke-width="1.3" stroke-miterlimit="10"/>
<path d="M209.354 140.689L206.031 127.892" stroke="white" stroke-width="1.3" stroke-miterlimit="10"/>
<path d="M207.465 142.648C188.669 142.442 130.418 141.554 95.0666 138.971C29.5157 134.183 -24.022 142.09 11.1451 151.127C20.9749 153.653 -7.37014 168.787 62.004 172.214C122.912 175.219 185.004 168.8 215.054 166.063C245.105 163.326 258.973 158.415 265.409 156.205C271.087 154.259 273.174 143.364 207.465 142.648Z" fill="#B7E5DA"/>
<path d="M175.323 118.556C171.886 88.2088 188.099 68.308 188.261 68.106L188.7 68.4794C188.537 68.677 172.477 88.3976 175.888 118.49L175.323 118.556Z" fill="#B7E5DA"/>
<path d="M187.941 68.8572C188.084 67.6635 188.57 66.537 189.34 65.6151C189.778 65.1187 190.931 64.5959 191.392 65.0132C191.852 65.4306 191.659 66.3971 191.01 67.1219C190.176 67.985 189.11 68.5877 187.941 68.8572Z" fill="#B7E5DA"/>
<path d="M186.209 71.5591C186.946 70.7635 187.888 70.1886 188.932 69.8985C189.524 69.7535 190.646 69.9293 190.769 70.4476C190.892 70.966 190.252 71.5767 189.388 71.7875C188.328 72.0086 187.227 71.9295 186.209 71.5591Z" fill="#B7E5DA"/>
<path d="M183.688 76.3915C184.366 75.73 185.24 75.3062 186.179 75.1834C186.692 75.1439 187.612 75.5349 187.652 76.0928C187.691 76.6507 187.073 77.1559 186.336 77.213C185.388 77.2334 184.459 76.9451 183.688 76.3915Z" fill="#B7E5DA"/>
<path d="M186.472 71.4933C185.614 71.108 184.903 70.4566 184.442 69.6351C184.223 69.1957 184.241 68.1809 184.741 67.9349C185.24 67.6889 185.933 68.0799 186.258 68.7477C186.621 69.6162 186.696 70.5787 186.472 71.4933Z" fill="#B7E5DA"/>
<path d="M175.319 103.716C174.32 103.631 173.369 103.257 172.578 102.64C172.14 102.28 171.701 101.322 172.021 100.936C172.342 100.549 173.17 100.672 173.775 101.199C174.522 101.871 175.058 102.745 175.319 103.716Z" fill="#B7E5DA"/>
<path d="M183.394 76.2156C182.414 75.6718 181.612 74.8556 181.084 73.8653C180.808 73.2986 180.759 72.1081 181.281 71.8665C181.803 71.6248 182.57 72.1212 182.969 72.9428C183.422 73.97 183.57 75.1064 183.394 76.2156Z" fill="#B7E5DA"/>
<path d="M180.746 81.3951C180.746 81.3951 179.098 80.8415 178.436 79.4797C178.195 78.9876 178.282 77.8938 178.901 77.595C179.519 77.2963 180.321 77.6785 180.654 78.3902C181.329 79.7521 180.746 81.3951 180.746 81.3951Z" fill="#B7E5DA"/>
<path d="M181.185 81.4789C181.783 80.6227 182.648 79.9904 183.644 79.6821C184.188 79.5547 185.254 79.8402 185.398 80.4685C185.543 81.0967 184.96 81.7864 184.184 81.9665C183.158 82.1431 182.102 81.9715 181.185 81.4789Z" fill="#B7E5DA"/>
<path d="M175.459 103.967C175.697 102.987 176.244 102.11 177.02 101.467C177.489 101.085 178.642 100.672 179.071 100.984C179.501 101.296 179.256 102.043 178.572 102.605C177.652 103.293 176.587 103.759 175.459 103.967Z" fill="#B7E5DA"/>
<path d="M177.318 92.1013C177.987 91.596 178.799 91.3161 179.637 91.3018C180.172 91.3018 181.246 91.5609 181.435 91.9475C181.623 92.3341 181.101 92.668 180.325 92.6987C179.294 92.69 178.274 92.4874 177.318 92.1013Z" fill="#B7E5DA"/>
<path d="M178.62 86.9921C177.971 86.5917 177.477 85.9832 177.217 85.2656C177.05 84.8263 177.002 83.8202 177.313 83.5435C177.625 83.2667 178.085 83.605 178.331 84.2552C178.616 85.1373 178.715 86.0695 178.62 86.9921Z" fill="#B7E5DA"/>
<path d="M176.23 98.3172C176.23 98.3172 176.669 96.56 177.633 95.6111C177.988 95.2728 178.756 95.141 178.949 95.7033C179.02 96.0512 179.002 96.4116 178.897 96.7505C178.791 97.0895 178.6 97.3958 178.344 97.6407C178.068 97.9103 177.734 98.1118 177.367 98.2293C177 98.3467 176.611 98.3768 176.23 98.3172Z" fill="#B7E5DA"/>
<path d="M177.392 92.3383C177.392 92.3383 175.415 91.5651 174.323 90.2428C173.924 89.7595 173.727 88.8018 174.323 88.6349C174.92 88.468 175.915 88.9468 176.515 89.6453C177.152 90.3911 177.468 91.3597 177.392 92.3383Z" fill="#B7E5DA"/>
<path d="M175.959 98.5239C175.959 98.5239 174.082 97.7859 173.135 96.5514C172.793 96.1121 172.697 95.2335 173.306 95.0709C173.915 94.9084 174.849 95.3785 175.345 96.0286C175.621 96.3756 175.818 96.7782 175.924 97.2089C176.03 97.6397 176.042 98.0882 175.959 98.5239Z" fill="#B7E5DA"/>
<path d="M201.73 80.3055C200.732 80.2179 199.78 79.8425 198.99 79.2248C198.551 78.8646 198.113 77.9069 198.433 77.5203C198.753 77.1337 199.582 77.2567 200.187 77.7795C200.934 78.4542 201.47 79.3316 201.73 80.3055Z" fill="#B7E5DA"/>
<path d="M175.371 114.466C175.609 113.488 176.157 112.612 176.932 111.971C177.401 111.584 178.554 111.171 178.984 111.488C179.413 111.804 179.168 112.542 178.488 113.104C177.568 113.793 176.501 114.259 175.371 114.466Z" fill="#B7E5DA"/>
<path d="M175.13 109.256C175.441 108.474 175.996 107.815 176.713 107.376C177.151 107.086 178.23 106.774 178.594 107.011C178.958 107.248 178.686 107.811 178.032 108.232C177.139 108.757 176.154 109.104 175.13 109.256Z" fill="#B7E5DA"/>
<path d="M185.275 88.1081C185.858 87.3134 186.606 86.6553 187.468 86.1795C187.906 85.9774 188.673 86.0433 188.669 86.5529C188.665 87.0625 188.103 87.7303 187.459 88.0202C187.12 88.1829 186.752 88.2746 186.376 88.2897C186.001 88.3048 185.626 88.243 185.275 88.1081Z" fill="#B7E5DA"/>
<path d="M175.279 114.669C175.279 114.669 173.218 114.155 171.96 112.982C171.522 112.542 171.184 111.624 171.758 111.382C172.333 111.141 173.381 111.492 174.043 112.112C174.406 112.436 174.703 112.828 174.915 113.267C175.127 113.705 175.251 114.182 175.279 114.669Z" fill="#B7E5DA"/>
<path d="M175.069 109.366C175.069 109.366 173.196 108.887 172.206 107.842C171.846 107.46 171.701 106.638 172.293 106.432C172.663 106.356 173.045 106.378 173.404 106.494C173.762 106.61 174.085 106.817 174.341 107.095C174.629 107.391 174.845 107.75 174.972 108.145C175.098 108.539 175.131 108.957 175.069 109.366Z" fill="#B7E5DA"/>
<path d="M178.69 87.3961C179.343 86.5689 180.204 85.9306 181.185 85.5466C181.794 85.3094 183.079 85.1732 183.377 85.5247C183.675 85.8761 183.14 86.4692 182.259 86.8206C181.116 87.2348 179.905 87.43 178.69 87.3961Z" fill="#B7E5DA"/>
<path d="M51.7796 65.4525C51.7796 65.4525 48.0836 63.4712 46.6192 59.7854C46.0887 58.4675 46.286 55.7042 47.6758 55.1463C49.0657 54.5884 50.8501 55.8448 51.6218 57.7822C53.0905 61.468 51.7796 65.4525 51.7796 65.4525Z" fill="#47C6BD"/>
<path d="M54.6689 71.4053C54.6689 71.4053 53.7482 67.8513 55.2652 64.7893C55.8132 63.6779 57.7248 62.2413 58.913 62.83C60.1012 63.4187 60.3642 65.3121 59.5663 66.9244C58.0493 69.9908 54.6689 71.4053 54.6689 71.4053Z" fill="#47C6BD"/>
<path d="M56.6287 78.8779C56.6287 78.8779 57.2338 75.258 59.8688 73.0834C60.8246 72.2926 63.157 71.7655 63.9989 72.7847C64.8407 73.8039 64.3102 75.6446 62.9247 76.7912C60.2897 78.9877 56.6287 78.8779 56.6287 78.8779Z" fill="#47C6BD"/>
<path d="M54.6426 71.6162C52.5622 72.3457 50.3209 72.484 48.1669 72.016C46.9655 71.7173 45.0978 70.3422 45.3696 69.2923C45.6415 68.2423 47.3733 67.7635 49.1183 68.2028C51.239 68.8076 53.1511 69.9891 54.6426 71.6162Z" fill="#47C6BD"/>
<path d="M57.1022 78.7463C57.1022 78.7463 53.9104 80.0862 50.6046 79.2559C49.4033 78.9572 47.5355 77.5294 47.8336 76.418C48.1318 75.3065 49.868 74.7838 51.6086 75.2187C54.9232 76.0534 57.1022 78.7463 57.1022 78.7463Z" fill="#47C6BD"/>
<path d="M58.6543 89.0219C58.6543 89.0219 56.0982 90.5287 53.5684 89.9005C52.6477 89.672 51.2973 88.3717 51.5779 87.2646C51.8585 86.1576 53.244 85.5425 54.5768 85.8764C57.1022 86.4914 58.6543 89.0219 58.6543 89.0219Z" fill="#47C6BD"/>
<path d="M59.0533 88.9208C59.2523 87.1214 59.9733 85.42 61.1271 84.0269C61.7979 83.2801 63.5341 82.4981 64.2313 83.1483C64.9284 83.7984 64.6697 85.2482 63.6832 86.3377C62.4246 87.6331 60.8152 88.531 59.0533 88.9208Z" fill="#47C6BD"/>
<path d="M73.7585 128.19C74.2557 128.199 74.7495 128.106 75.2098 127.918L74.9072 127.29L75.0607 127.602L74.9116 127.285C74.8502 127.316 73.4166 127.962 71.3647 126.806C69.0672 125.488 66.9802 122.55 65.1432 118.02C62.6309 111.791 60.7106 102.737 59.4435 91.1082C57.9528 77.595 54.7522 70.9219 52.6346 66.5068C52.0909 65.3734 51.6218 64.3938 51.3193 63.5327L50.666 63.7787C50.9992 64.6573 51.4727 65.659 52.0251 66.8056C54.1209 71.1987 57.2864 77.7883 58.7683 91.1828C61.6138 117.076 67.0417 125.194 71.0928 127.443C71.9038 127.915 72.8211 128.172 73.7585 128.19Z" fill="#47C6BD"/>
<path d="M191.878 88.626C191.661 87.3943 191.834 86.1254 192.374 84.9973C192.698 84.3911 193.768 83.6267 194.395 83.9649C195.022 84.3032 195.11 85.3444 194.636 86.223C193.99 87.2935 193.026 88.134 191.878 88.626Z" fill="#47C6BD"/>
<path d="M190.58 91.508C191.236 90.6442 192.15 90.0131 193.189 89.7069C193.764 89.5663 194.873 89.8299 195.022 90.4449C195.171 91.0599 194.557 91.7409 193.707 91.9386C192.645 92.1317 191.55 91.9809 190.58 91.508Z" fill="#47C6BD"/>
<path d="M188.45 94.5176C189.399 93.9958 190.49 93.7926 191.563 93.9377C192.141 94.0475 193.049 94.7372 192.935 95.361C192.821 95.9849 191.983 96.3539 191.137 96.1957C190.086 95.9378 189.144 95.3498 188.45 94.5176Z" fill="#47C6BD"/>
<path d="M190.506 91.5652C189.603 91.0237 188.867 90.2422 188.379 89.3072C188.121 88.7756 188.055 87.673 188.52 87.4489C188.985 87.2249 189.69 87.7169 190.068 88.4901C190.496 89.4545 190.648 90.5193 190.506 91.5652Z" fill="#47C6BD"/>
<path d="M188.643 94.6491C187.712 94.1336 186.95 93.3583 186.45 92.4174C186.196 91.8859 186.152 90.77 186.643 90.5328C187.134 90.2956 187.862 90.7788 188.239 91.5564C188.667 92.527 188.807 93.6008 188.643 94.6491Z" fill="#47C6BD"/>
<path d="M185.354 98.3658C184.564 98.0644 183.902 97.4998 183.478 96.7668C183.281 96.3582 183.346 95.4488 183.837 95.2248C184.117 95.1305 184.422 95.1483 184.688 95.2745C184.954 95.4006 185.162 95.6253 185.267 95.9013C185.578 96.6883 185.609 97.5587 185.354 98.3658Z" fill="#47C6BD"/>
<path d="M185.517 98.4797C186.235 98.0015 187.078 97.7463 187.941 97.7461C188.419 97.7461 189.235 98.1634 189.217 98.6247C189.199 99.086 188.577 99.4242 187.902 99.4023C187.033 99.339 186.203 99.0178 185.517 98.4797Z" fill="#47C6BD"/>
<path d="M175.643 115.89C175.791 116.073 175.976 116.223 176.187 116.329L176.322 116.026L176.252 116.175L176.322 116.026C176.07 115.871 175.856 115.659 175.699 115.408C175.542 115.156 175.444 114.872 175.415 114.576C175.187 113.333 175.63 111.659 176.73 109.594C178.243 106.765 180.97 103.29 184.837 99.2574C189.327 94.5788 190.791 91.3499 191.76 89.228C192.005 88.6833 192.198 88.2088 192.439 87.831L192.15 87.6641C191.927 88.0594 191.712 88.5427 191.453 89.0918C190.497 91.2005 189.05 94.3899 184.596 99.029C175.989 108 174.678 112.481 175.095 114.655C175.165 115.108 175.354 115.534 175.643 115.89Z" fill="#47C6BD"/>
<path d="M19.3001 145.451C18.3443 143.979 19.5325 142.727 24.0703 142.064C28.6031 141.442 33.2115 141.669 37.6619 142.731C28.4547 138.268 17.7656 132.008 27.5428 131.283C30.6118 131.059 35.2812 132.535 40.4942 134.846C34.6761 130.106 31.4755 126.205 35.0006 125.48C38.2713 124.808 44.9444 128.665 52.0471 133.787C48.0003 129.495 45.659 125.748 47.4742 123.982C48.9605 122.541 52.126 124.197 55.7651 127.263C55.6028 124.566 56.734 122.936 59.312 123.266C61.741 123.573 63.6964 126.692 65.1082 130.435C67.4407 124.627 73.5876 121.078 79.7915 122.839C87.0827 124.913 81.2251 138.835 77.9675 145.451H19.3001Z" fill="#47C6BD"/>
<path d="M56.94 139.332L57.2732 139.235C54.9057 131.297 50.644 119.694 43.7737 109.516C39.6568 103.418 36.5088 100.686 36.4781 100.659L36.2501 100.923C36.2852 100.949 39.4025 103.66 43.4931 109.709C47.2724 115.323 52.6696 125.001 56.94 139.332Z" fill="#47C6BD"/>
<path d="M58.7025 136.252L59.0489 136.225C57.7117 119.694 49.4032 105.474 49.3068 105.337L49.0087 105.518C49.092 105.658 57.3697 119.804 58.7025 136.252Z" fill="#47C6BD"/>
<path d="M52.4811 137.807L52.8231 137.781C52.1523 129.833 48.7938 124.799 46.093 121.965C44.4496 120.196 42.4934 118.747 40.3232 117.691L40.1917 118.012C42.3226 119.051 44.2431 120.476 45.8563 122.216C48.5088 125.014 51.8146 129.974 52.4811 137.807Z" fill="#47C6BD"/>
<path d="M34.8208 98.5898C32.5497 100.193 31.2344 102.236 31.8789 103.159C32.5234 104.081 34.8954 103.532 37.1665 101.929C39.4376 100.325 40.7529 98.2823 40.104 97.3597C39.4551 96.4372 37.0919 96.9995 34.8208 98.5898Z" fill="#47C6BD"/>
<path d="M35.6188 99.732C34.8997 100.237 34.4788 100.887 34.6849 101.182C34.891 101.476 35.6451 101.3 36.3641 100.791C37.0832 100.281 37.5041 99.6309 37.298 99.341C37.092 99.051 36.3422 99.2224 35.6188 99.732Z" fill="#0063CB"/>
<path d="M48.5132 104.512C47.5662 105.179 47.0181 106.032 47.29 106.414C47.5618 106.796 48.5439 106.568 49.4822 105.9C50.4204 105.232 50.9729 104.384 50.7054 103.998C50.438 103.611 49.4603 103.844 48.5132 104.512Z" fill="#47C6BD"/>
<path d="M48.8465 104.986C48.5439 105.197 48.3729 105.469 48.4563 105.592C48.5396 105.715 48.8552 105.641 49.1577 105.425C49.4603 105.21 49.6313 104.947 49.5436 104.824C49.4559 104.701 49.1446 104.775 48.8465 104.986Z" fill="#0063CB"/>
<path d="M39.4156 117.164C38.4642 118.31 38.0652 119.558 38.5387 119.945C39.0123 120.331 40.1522 119.712 41.108 118.565C42.0638 117.419 42.454 116.171 41.9849 115.784C41.5157 115.398 40.367 116.013 39.4156 117.164Z" fill="#47C6BD"/>
<path d="M39.99 117.647C39.6875 118.012 39.5516 118.407 39.7094 118.526C39.8673 118.644 40.2224 118.451 40.5249 118.086C40.8274 117.722 40.9634 117.326 40.8055 117.208C40.6477 117.089 40.2925 117.278 39.99 117.647Z" fill="#0063CB"/>
<path d="M46.5797 135.575L46.4613 135.487L46.5227 135.465C47.0664 135.25 47.3996 134.846 47.3075 134.56C47.2154 134.275 46.663 134.218 46.1194 134.433L45.9834 134.49C45.9856 134.468 45.9856 134.446 45.9834 134.424C46.0755 133.844 45.9001 133.339 45.5976 133.291C45.2951 133.242 44.9794 133.682 44.8917 134.257C44.8917 134.31 44.8917 134.358 44.8917 134.407L44.8435 134.363C44.405 133.998 43.8614 133.893 43.6684 134.134C43.4755 134.376 43.6947 134.863 44.1507 135.228C44.188 135.26 44.2276 135.29 44.2691 135.316H44.2077C43.6641 135.531 43.3309 135.935 43.423 136.221C43.515 136.506 44.0674 136.564 44.6111 136.353L44.747 136.291V136.357C44.6594 136.937 44.8347 137.442 45.1372 137.491C45.4397 137.539 45.7555 137.104 45.8431 136.524C45.8474 136.474 45.8474 136.424 45.8431 136.375L45.8958 136.419C46.3342 136.783 46.8778 136.889 47.0707 136.647C47.2637 136.405 47.0357 135.94 46.5797 135.575ZM45.2644 135.971C45.152 135.954 45.0472 135.904 44.9632 135.827C44.8791 135.75 44.8197 135.651 44.7923 135.54C44.7649 135.43 44.7708 135.313 44.8093 135.206C44.8478 135.099 44.9172 135.006 45.0086 134.938C45.1 134.871 45.2094 134.832 45.3229 134.827C45.4364 134.821 45.5489 134.85 45.6462 134.908C45.7435 134.967 45.8212 135.054 45.8695 135.157C45.9179 135.26 45.9346 135.375 45.9176 135.487C45.8949 135.636 45.8146 135.771 45.694 135.861C45.5735 135.951 45.4224 135.991 45.2731 135.971H45.2644Z" fill="white"/>
<path d="M171.013 150.63L170.005 156.086H185.429C185.441 155.575 185.277 155.075 184.965 154.671C184.653 154.266 184.211 153.981 183.715 153.863C181.899 153.358 176.958 151.843 175.647 150.226C174.336 148.609 171.013 150.63 171.013 150.63Z" fill="#C5E1F9"/>
<path d="M170.548 149.717C170.548 149.717 168.132 130.325 169.136 125.48C170.141 120.634 170.347 117.599 169.943 115.178C169.54 112.757 166.186 82.4671 166.186 82.4671L176.599 71.5459H179.229C179.229 71.5459 179.628 96.5865 177.616 111.743C175.604 126.899 174.792 150.323 174.792 150.323L170.548 149.717Z" fill="#212957"/>
<path d="M163.696 70.9438C163.696 70.9438 156.913 76.4484 155.098 84.1231C153.283 91.7979 149.784 113.557 149.398 114.98C149.012 116.404 145.974 125.282 145.167 127.501C144.36 129.719 140.932 149.721 140.932 149.721H144.965C144.965 149.721 153.23 129.513 154.642 124.878C156.053 120.243 157.948 115.802 157.948 115.802C157.948 115.802 171.171 88.5162 173.793 81.6498C176.415 74.7834 176.616 71.5457 176.616 71.5457L163.696 70.9438Z" fill="#3C63BA"/>
<path d="M145 150.38C145 150.38 144.799 152.348 144.799 152.955C144.799 153.561 146.114 155.278 146.21 155.784L146.311 156.289H136.433C136.433 156.289 136.232 155.278 137.841 153.965C139.45 152.651 139.958 151.742 140.16 150.077C140.362 148.412 145 150.38 145 150.38Z" fill="#C5E1F9"/>
<path d="M164.147 73.1143C164.147 73.1143 162.288 74.9813 160.113 79.4359C158.4 83.037 157.067 86.8077 156.137 90.6866C151.985 107.319 152.739 112.964 152.739 112.964C152.739 112.964 146.162 127.501 143.738 137.047L141.318 146.593" stroke="#7EB3FF" stroke-width="1.21" stroke-miterlimit="10"/>
<path d="M167.172 74.6299C167.172 74.6299 164.147 80.5386 160.824 80.688" stroke="#7EB3FF" stroke-width="1.21" stroke-miterlimit="10"/>
<path d="M177.791 44.0935C177.791 44.0935 171.53 38.4615 176.358 29.5172C179.036 24.5618 177.633 11.0179 168.965 15.222C160.298 19.4262 162.643 14.1809 157.75 16.54C152.857 18.8991 150.687 22.3916 151.345 26.2311C152.002 30.0707 151.577 37.3764 148.569 38.7822C145.562 40.188 131.137 48.0516 140.432 57.9844C149.727 67.9172 183.491 60.6071 177.791 44.0935Z" fill="#212957"/>
<path d="M172.736 44.2825C172.736 44.2825 178.16 61.6703 177.866 63.9635C177.572 66.2567 175.827 73.312 173.718 72.1523C171.609 70.9925 168.637 64.3985 167.734 59.1399C166.83 53.8814 157.693 36.6692 172.736 44.2825Z" fill="#00A19A"/>
<path d="M167.269 42.3405C166.563 42.3405 158.246 41.4619 158.246 41.4619L152.585 43.944C152.585 43.944 149.753 43.7683 150.459 48.3767C151.165 52.985 158.601 70.8956 160.017 71.7831C161.433 72.6705 169.544 75.8291 174.705 76.5671C178.006 77.0416 179.422 75.6226 179.422 75.6226C179.422 75.6226 179.124 59.5483 179.479 58.8366C179.834 58.1249 180.01 53.8724 175.941 50.683C173.113 48.4733 167.269 42.3405 167.269 42.3405Z" fill="#00A19A"/>
<path d="M154.861 46.066C154.861 46.066 166.699 62.0217 166.896 64.3281C167.093 66.6344 164.949 73.3691 162.648 72.6749C160.346 71.9808 156.102 66.116 154.155 61.1518C152.208 56.1877 145.483 40.0342 154.861 46.066Z" fill="#00A19A"/>
<path d="M158.053 29.9302L159.114 41.4533L166.545 42.3407L164.774 35.0701L158.053 29.9302Z" fill="#F7B68B"/>
<path d="M165.761 38.9055C165.563 38.8264 165.353 38.7297 165.125 38.6199C162.73 37.4176 160.499 35.9116 158.487 34.139L158.048 29.043L164.774 34.5519L165.761 38.9055Z" fill="#EC9568"/>
<path d="M171.495 23.3711C171.495 23.3711 172.026 29.2227 170.434 32.5966C168.843 35.9705 169.018 38.6283 165.48 36.8535C161.942 35.0787 157.869 32.065 156.987 30.1145C156.106 28.164 157.518 25.5061 159.815 26.7494C162.113 27.9926 161.942 26.2178 164.239 26.5693C166.537 26.9207 170.776 26.5605 171.495 23.3711Z" fill="#F7B68B"/>
<path d="M178.699 64.6357C178.835 64.6357 178.966 64.5918 179.098 64.5654V63.5111C179.097 62.2302 178.608 60.9981 177.73 60.0669C177.654 60.1923 177.566 60.31 177.467 60.4184C176.743 61.1476 176.498 62.0833 173.118 63.1816C167.966 64.851 161.486 65.0706 160.618 69.2836C159.75 73.4966 165.879 73.9008 165.879 73.9008L175.796 65.8087C176.648 65.1759 177.647 64.7721 178.699 64.6357Z" fill="#F7B68B"/>
<path d="M195.395 53.7495L191.449 57.9932L195.592 62.9267L195.767 62.4522C195.767 62.4522 194.706 58.9949 195.132 57.1805C195.393 56.0569 195.481 54.8999 195.395 53.7495Z" fill="#EAF4FE"/>
<path d="M186.49 53.2617C186.49 53.2617 190.221 56.1348 191.422 57.5318C192.624 58.9288 195.443 62.083 195.552 62.2983C195.552 62.2983 193.772 57.4176 195.395 53.7493C195.711 53.6908 196.033 53.6614 196.355 53.6615C196.355 53.6615 195.381 56.249 195.416 57.9975C195.417 59.877 195.742 61.7422 196.377 63.5108C196.499 63.8095 194.833 63.748 194.833 63.748L185.188 54.2721L185.53 53.578L186.49 53.2617Z" fill="#C5E1F9"/>
<path d="M177.625 63.9941L185.538 53.5781C185.538 53.5781 189.484 56.3414 191.83 58.986C193.129 60.422 194.302 61.9667 195.338 63.6032L185.942 71.2471C185.942 71.2471 179.107 64.2182 177.625 63.9941Z" fill="#006FA0"/>
<path d="M174.608 57.7517L178.238 56.873L182.382 57.5671L184.407 58.7269C184.407 58.7269 185.1 59.0696 184.596 59.4737C184.092 59.8779 183.719 60.0712 183.394 59.935C183.07 59.7988 182.342 59.5792 182.342 59.5792C182.342 59.5792 183.219 59.9614 183.381 60.2997C183.544 60.6379 183.732 60.6731 183.32 60.9323C182.971 61.1655 182.568 61.3047 182.149 61.3364C181.983 61.2969 178.642 61.3364 178.642 61.3364C178.642 61.3364 178.545 61.8856 178.83 61.8241C179.115 61.7626 181.851 61.7318 181.851 61.7318C181.851 61.7318 182.443 61.5517 182.728 61.7318C183.013 61.9119 182.82 62.36 182.754 62.6104C182.642 62.839 182.494 63.0481 182.316 63.2299C182.397 63.366 182.457 63.5143 182.491 63.6692C182.502 63.848 182.454 64.0254 182.354 64.174C182.254 64.3226 182.108 64.4339 181.939 64.4907C181.452 64.6796 179.997 65.1408 179.997 65.1408L178.243 65.5802C177.639 66.0421 176.993 66.4465 176.314 66.7883C175.521 67.0365 174.716 67.2447 173.902 67.4121L172.78 68.2028C172.78 68.2028 170.535 67.7943 170.526 67.6449C170.517 67.4955 169.483 64.9344 169.834 64.3896C170.184 63.8449 171.745 63.3924 171.745 63.3924C171.745 63.3924 174.174 60.0668 174.608 57.7517Z" fill="#F7B68B"/>
<path d="M196.377 63.5107C196.226 63.6133 196.052 63.6757 195.871 63.6918C195.69 63.7079 195.508 63.6774 195.342 63.603C195.215 63.5415 185.946 71.247 185.946 71.247C185.946 71.247 186.078 71.6555 186.608 71.5018C187.139 71.348 196.377 63.5107 196.377 63.5107Z" fill="#0450CF"/>
<path d="M187.989 65.0923C188.503 65.1982 188.98 65.4359 189.375 65.7821C189.879 66.3004 190.072 66.5333 190.072 66.5333L191.751 67.3152L192.562 66.6431V68.1236C192.562 68.1236 192.461 68.9275 192.124 69.1076C191.821 69.2479 191.503 69.354 191.177 69.4239C191.094 69.795 190.905 70.1339 190.633 70.3992C190.432 70.5923 190.201 70.7511 189.949 70.8692L189.555 71.4316L188.678 71.6688L188.309 71.9104L186.604 72.1125C186.604 72.1125 185.21 70.6101 185.118 69.9775C185.025 69.3448 185.118 68.598 185.297 68.453C185.477 68.3081 185.271 67.5964 185.297 67.4295C185.324 67.2625 185.118 66.832 185.394 66.7529C185.67 66.6738 186.043 66.6519 186.174 66.8584C186.306 67.0648 185.916 66.1906 185.916 66.1906C185.916 66.1906 185.916 65.5712 186.222 65.536C186.529 65.5009 187.191 66.0588 187.191 66.0588C187.3 66.1409 187.391 66.244 187.459 66.3619C187.551 66.5289 187.415 65.9226 187.459 65.6546C187.503 65.3867 187.604 65.0879 187.989 65.0923Z" fill="#F7B68B"/>
<path d="M83.9961 7.44205C92.2343 4.22191 92.9446 8.35581 95.0228 13.3288C97.101 18.3018 98.298 29.614 93.9574 33.8885C89.6169 38.1629 89.6432 45.2007 86.3461 41.6159C82.5054 37.4469 80.9095 41.5324 77.5774 40.0608C71.7242 37.4776 71.1937 31.5338 74.9116 26.3455C78.6296 21.1573 78.0947 20.0722 77.4809 16.483C76.8671 12.8939 81.4224 8.45246 83.9961 7.44205Z" fill="#163F59"/>
<path d="M81.6066 8.69836C82.216 8.17558 88.8101 4.57325 93.177 6.36563C97.5438 8.15801 99.9728 12.3051 99.7974 17.0101C99.622 21.7151 97.9121 23.1121 102.371 26.8287C107.821 31.3667 111.342 34.6176 110.009 37.7631C107.435 43.8387 97.2369 46.6986 95.8208 43.6586C94.067 39.8761 99.5694 30.04 94.1898 29.0823C90.2 28.3662 88.8101 27.738 88.0253 22.8353C87.2405 17.9326 91.5854 14.7389 88.3892 14.8311C84.6143 14.9497 76.3541 13.2628 81.6066 8.69836Z" fill="#163F59"/>
<path d="M94.523 28.353C94.523 28.353 84.2854 28.6298 84.0487 28.1202C83.8119 27.6106 82.7334 26.4552 84.1364 25.6689C85.5394 24.8825 88.4024 24.5574 90.0509 24.6057C91.6994 24.6541 95.6498 24.7507 95.6498 25.2559C95.6498 26.9912 94.9921 28.028 94.523 28.353Z" fill="#D1DBEA"/>
<path d="M98.3374 27.6501C98.3374 27.6501 94.8299 34.5121 90.691 35.461C86.5521 36.4099 80.8349 35.5181 80.243 33.8619C79.6511 32.2057 81.1199 28.9504 82.045 28.1245C82.9701 27.2986 86.0567 26.4683 86.8678 24.9307C87.543 23.6743 87.3413 21.3811 86.8678 19.6063C86.3943 17.8315 84.9782 17.7129 86.3943 16.887C87.8105 16.0611 87.223 15.2308 88.6391 15.4636C90.0553 15.6964 90.8839 15.1693 90.8839 16.5311C90.8839 19.0132 90.6778 22.5013 92.0633 24.1004C93.611 25.8752 95.8602 25.5194 98.3374 27.6501Z" fill="#F7B68B"/>
<path d="M86.8854 19.6063C86.4118 17.849 84.9956 17.7129 86.4118 16.887C87.828 16.0611 87.2405 15.2308 88.6566 15.4636C88.8987 15.5048 89.1434 15.5282 89.3888 15.5339C89.5949 15.7184 89.8273 15.8985 90.0421 16.0699C90.2569 16.2412 90.6121 16.4696 90.919 16.6497C90.919 17.6777 90.8883 18.8463 90.9497 20.0236C90.6101 20.623 90.1168 21.1206 89.521 21.4651C88.9252 21.8095 88.2484 21.9883 87.5605 21.9829C87.4728 21.9829 87.3895 21.9829 87.3062 21.9829C87.2386 21.1795 87.0977 20.384 86.8854 19.6063Z" fill="#EC9568"/>
<path d="M96.7503 140.157L96.8379 150.362C96.8379 150.362 93.2077 154.799 91.8792 155.507C90.5507 156.214 90.7261 155.599 90.8182 155.243C90.9102 154.887 93.12 152.313 93.4751 150.894C93.8302 149.475 93.0367 140.79 93.12 140.35C93.2033 139.911 96.7503 140.157 96.7503 140.157Z" fill="#F7B68B"/>
<path d="M97.7542 69.5295L95.2683 108.69C95.2683 108.69 97.215 117.629 97.4605 120.643C97.8989 125.801 97.3947 141.343 97.3947 141.343L92.1992 141.576C92.1992 141.576 88.5383 106.431 88.0691 103.356C87.6 100.281 82.2818 75.201 85.3508 69.0507C88.4199 62.9003 97.7542 69.5295 97.7542 69.5295Z" fill="#194866"/>
<path d="M96.9257 149.831C97.1376 150.222 97.2262 150.667 97.1799 151.109C97.0966 151.641 96.6626 153.201 96.6626 153.201L95.6848 153.64V152.933C95.6848 152.933 93.9311 155.059 93.0542 155.683C92.1773 156.306 90.3096 157.848 89.2442 157.44C89.1562 157.398 89.0786 157.336 89.0172 157.26C88.9558 157.184 88.912 157.096 88.889 157.001C88.889 157.001 90.5727 155.138 90.8401 154.87C91.1076 154.602 91.717 155.138 92.4317 154.694C93.6076 153.784 94.7033 152.774 95.7068 151.676C96.1734 151.103 96.5817 150.485 96.9257 149.831Z" fill="#161711"/>
<path d="M87.0081 137.855L87.0958 148.06C87.0958 148.06 83.4655 152.497 82.1371 153.205C80.8086 153.912 80.9884 153.293 81.0761 152.941C81.1638 152.59 83.3779 150.011 83.733 148.592C84.0881 147.173 83.2946 138.488 83.3779 138.049C83.4612 137.609 87.0081 137.855 87.0081 137.855Z" fill="#F7B68B"/>
<path d="M85.5305 67.7549L86.1225 104.433L87.3019 139.578L82.1108 139.815C82.1108 139.815 78.4498 104.323 77.9763 101.243C77.5028 98.1639 72.1889 73.4439 75.2624 67.2936C78.3358 61.1433 85.5305 67.7549 85.5305 67.7549Z" fill="#194866"/>
<path d="M81.5364 69.9995L85.6534 75.3283L86.0085 97.2235C84.5442 94.2406 83.4612 92.066 83.1192 91.4378C82.558 90.4098 80.3044 86.724 77.7527 82.1684C77.7527 80.5912 77.7133 79.0053 77.7133 77.4238C78.8537 74.8821 80.1299 72.4037 81.5364 69.9995Z" fill="#163F59"/>
<path d="M87.1879 147.52C87.3959 147.91 87.4829 148.354 87.4378 148.794C87.3589 149.33 86.9205 150.89 86.9205 150.89L85.9471 151.329V150.622C85.9471 150.622 84.1934 152.748 83.2902 153.372C82.387 153.995 80.55 155.537 79.4802 155.129C79.3924 155.087 79.3153 155.026 79.2545 154.949C79.1938 154.873 79.151 154.785 79.1294 154.69C79.1294 154.69 80.8086 152.827 81.0761 152.559C81.3435 152.291 81.953 152.827 82.6676 152.383C83.845 151.473 84.9421 150.463 85.9471 149.365C86.4197 148.792 86.8352 148.174 87.1879 147.52Z" fill="#161711"/>
<path d="M75.8762 68.7912H94.9264L92.1642 52.6291L92.7868 33.6641C92.7868 33.6641 89.2486 35.0303 86.1488 35.2236C84.1145 35.351 79.7696 33.6641 79.7696 33.6641L75.8762 68.7912Z" fill="#00A19A"/>
<path d="M86.1576 69.6481C86.1576 69.6481 89.9369 40.8997 90.9804 38.7735C92.0239 36.6472 92.8701 31.6742 92.8701 31.6742L93.1068 27.0615L94.9965 25.5195C94.9965 25.5195 99.6001 27.5316 100.429 28.7177C101.257 29.9038 98.8942 35.5797 98.3023 37.3501C97.7104 39.1205 95.2333 44.9238 95.1149 46.2242C94.9965 47.5245 95.1412 50.5162 95.7068 51.9044C100.192 62.8872 100.227 70.1885 100.091 70.1226C96.5661 68.585 86.1576 69.6481 86.1576 69.6481Z" fill="#D1DBEA"/>
<path d="M97.8157 40.1311L98.9118 52.3791L98.7934 54.0441L104.905 53.6882C104.905 53.6882 104.191 45.192 103.928 44.3924C103.664 43.5929 103.051 36.6738 103.13 35.4305C103.208 34.1873 100.937 25.8492 98.5741 29.3065C95.1499 34.2751 97.8157 40.1311 97.8157 40.1311Z" fill="#B0BFDE"/>
<path d="M84.0531 25.9941C84.0531 25.9941 79.8002 28.7179 79.6687 29.8996C79.5371 31.0813 77.779 37.3679 77.4282 42.6747C77.0775 47.9816 77.4282 49.4181 76.718 53.2181C76.0077 57.0182 74.9642 57.6464 74.2408 62.3294C73.6796 65.9933 73.5305 69.3057 73.5305 69.3057C74.0172 69.541 74.5574 69.6435 75.0963 69.6026C75.6352 69.5617 76.1538 69.379 76.5996 69.0728C78.1341 68.0053 80.4973 55.3488 80.7341 52.155C80.9709 48.9612 80.9665 40.443 81.5584 38.3124C82.1503 36.1817 84.3337 29.6756 84.8642 29.0869C86.2058 27.5888 84.2854 26.2314 84.0531 25.9941Z" fill="#D1DBEA"/>
<path d="M95.1192 25.0185L93.1112 27.0613C93.1112 27.0613 93.6154 26.7406 93.9881 27.7861C94.2555 28.5374 94.6063 29.4687 94.6063 29.4687L96.5573 26.2266C96.5573 26.2266 95.7418 24.6626 95.1192 25.0185Z" fill="#B0BFDE"/>
<path d="M84.11 25.669C84.1837 25.8744 84.2936 26.0648 84.4345 26.2313C84.7395 26.5908 85.011 26.9775 85.2456 27.3867C85.2456 27.3867 84.6274 26.899 84.2284 27.435C83.7959 28.1571 83.4403 28.9228 83.1674 29.7194C83.1674 29.7194 82.3563 27.312 82.8123 26.7057C83.6365 25.6119 84.11 25.669 84.11 25.669Z" fill="#B0BFDE"/>
<path d="M82.8781 11.9008C82.9658 11.8129 83.0622 11.7295 83.1587 11.6504C84.0663 12.7531 85.8858 13.6405 88.0911 13.9128C88.6105 13.9743 89.1335 13.9993 89.6563 13.9875L90.2921 15.1385C91.2391 16.8474 90.4981 19.0659 88.6479 20.0939C86.7977 21.1219 84.5266 20.5772 83.5796 18.8682L82.1415 16.2675C82.7971 14.912 83.0527 13.397 82.8781 11.9008Z" fill="#F7B68B"/>
<path d="M82.8824 55.1157L84.0706 52.0801C87.9902 52.3788 92.1028 51.9132 95.6761 51.6188C103.331 50.9862 103.493 52.4184 103.493 52.4184C101.512 54.672 94.2205 56.0646 94.2205 56.0646L82.8824 55.1157Z" fill="#F7B68B"/>
<path d="M100.53 49.7999L92.5018 51.1881L94.2819 57.2549L104.91 53.7405C104.91 53.7405 102.739 49.7252 100.53 49.7999Z" fill="#B0BFDE"/>
<path d="M62.517 41.0884L66.9934 45.9208L62.2627 51.5527L62.0654 51.008C62.0654 51.008 63.2711 47.0542 62.7888 44.9938C62.5017 43.7133 62.41 42.3965 62.517 41.0884Z" fill="#EAF4FE"/>
<path d="M72.6799 40.5308C72.6799 40.5308 68.4183 43.808 67.046 45.4071C65.6737 47.0062 62.46 50.5997 62.3372 50.8414C62.3372 50.8414 64.3671 45.2709 62.5169 41.0887C62.1554 41.0218 61.7885 40.988 61.4208 40.9876C61.4208 40.9876 62.5301 43.9398 62.4906 45.9387C62.4512 47.9375 62.1487 50.4064 61.3945 52.2296C61.2542 52.5722 63.1483 52.4976 63.1483 52.4976L74.1487 41.6817L73.7585 40.891L72.6799 40.5308Z" fill="#C5E1F9"/>
<path d="M82.7947 52.7788L73.7629 40.8911C73.7629 40.8911 69.2602 44.0453 66.5857 47.0634C65.1006 48.7015 63.7598 50.4653 62.5783 52.3351L73.2982 61.0554C73.2982 61.0554 81.1243 53.038 82.7947 52.7788Z" fill="#006FA0"/>
<path d="M81.7732 47.8626L79.1908 47.23L76.2489 47.722L74.8108 48.5435C74.8108 48.5435 74.3197 48.7895 74.6792 49.0751C75.0387 49.3606 75.3106 49.5144 75.5298 49.4046C75.749 49.2947 76.2795 49.1498 76.2795 49.1498C76.2795 49.1498 75.6701 49.4221 75.5386 49.6594C75.4071 49.8966 75.293 49.9273 75.5824 50.0987C75.8313 50.2633 76.1181 50.3616 76.4155 50.3842C76.5338 50.3579 78.9189 50.3842 78.9189 50.3842C78.9189 50.3842 78.9847 50.7708 78.783 50.7313C78.5814 50.6917 76.6391 50.661 76.6391 50.661C76.6391 50.661 76.2006 50.5336 76.0165 50.661C75.8323 50.7884 75.9507 51.1003 76.0165 51.2716C76.0919 51.433 76.1926 51.5813 76.3146 51.7109C76.2585 51.8093 76.2185 51.9161 76.1962 52.0272C76.1877 52.1541 76.2213 52.2803 76.2919 52.386C76.3625 52.4917 76.4661 52.571 76.5865 52.6115C76.9328 52.7477 77.9632 53.0728 77.9632 53.0728L79.2215 53.3803C79.6516 53.7076 80.111 53.9944 80.5938 54.237C81.0673 54.4171 82.3037 54.6763 82.3037 54.6763L83.0885 55.2649C83.0885 55.2649 84.6844 54.975 84.6932 54.8652C84.702 54.7553 85.4342 52.941 85.1842 52.5544C84.9343 52.1678 83.8251 51.8471 83.8251 51.8471C83.8251 51.8471 82.0713 49.5056 81.7732 47.8626Z" fill="#F7B68B"/>
<path d="M61.3946 52.2295C61.567 52.3457 61.7659 52.4163 61.9729 52.4347C62.1799 52.4531 62.3881 52.4188 62.5783 52.3349C62.7186 52.2646 73.2982 61.0552 73.2982 61.0552C73.2982 61.0552 73.1447 61.5209 72.544 61.3452C71.9433 61.1694 61.3946 52.2295 61.3946 52.2295Z" fill="#0450CF"/>
<path d="M70.4308 55.8843C70.0666 55.9583 69.728 56.1264 69.4487 56.372C69.0935 56.741 68.9576 56.9035 68.9576 56.9035L67.7695 57.4571L67.1951 56.9826V58.0282C67.1951 58.0282 67.2652 58.5993 67.5064 58.7267C67.7206 58.827 67.9457 58.9022 68.1772 58.9507C68.2363 59.2123 68.3686 59.4516 68.5586 59.6404C68.7014 59.7778 68.8658 59.8906 69.0453 59.9743L69.3259 60.3741L69.9485 60.541L70.2072 60.7124L71.4129 60.8529C71.4129 60.8529 72.4038 59.7898 72.4651 59.3461C72.5434 58.9821 72.5003 58.6024 72.3424 58.2654C72.2152 58.1644 72.3424 57.6548 72.3424 57.5362C72.3424 57.4175 72.4651 57.0968 72.2722 57.0573C72.0793 57.0178 71.8338 56.9914 71.7198 57.1364C71.6058 57.2814 71.8995 56.6619 71.8995 56.6619C71.8995 56.6619 71.8995 56.2226 71.6847 56.1963C71.4699 56.1699 71.0008 56.5653 71.0008 56.5653C70.9243 56.625 70.8589 56.6979 70.8078 56.7805C70.7421 56.9035 70.8385 56.4686 70.8078 56.2797C70.7771 56.0908 70.7026 55.88 70.4308 55.8843Z" fill="#F7B68B"/>
<path d="M133.421 25.3612C134.837 25.2646 135.894 23.8368 135.784 22.1674L134.96 9.78331C134.7 9.43246 134.376 9.13431 134.004 8.90469C133.216 8.42343 132.298 8.19805 131.377 8.25939C130.455 8.32073 129.575 8.66578 128.857 9.24735C127.156 10.596 126.621 14.8002 126.946 16.8606C127.375 19.8127 127.814 22.7664 128.261 25.7215L133.421 25.3612Z" fill="#F7B68B"/>
<path d="M115.971 28.2124C115.971 28.2124 112.49 30.6725 109.947 45.486C107.404 60.2995 109.027 59.7416 109.027 59.7416L109.487 63.1155L115.954 63.6778L119.65 50.9379L115.971 28.2124Z" fill="#B0BFDE"/>
<path d="M141.401 155.182V156.939H131.711L131.483 152.243L137.332 152.049C137.332 152.049 140.489 154.931 141.401 155.182Z" fill="#161711"/>
<path d="M129.085 74.1862C129.085 74.1862 124.061 102.987 118.821 115.631C114.183 126.833 108.772 112.261 108.772 112.261L117.238 63.9371L131.198 62.874C131.198 62.874 132.159 63.2255 129.085 74.1862Z" fill="#212957"/>
<path d="M127.919 62.9882L126.205 81.5579L128.625 82.9856C128.625 82.9856 130.023 110.574 130.479 111.98C133.11 119.967 139.871 115.178 140.796 112.516C141.721 109.854 143.26 90.1507 142.953 75.7765L142.646 61.4023L127.919 62.9882Z" fill="#212957"/>
<path d="M131.071 104.569C131.071 104.569 129.949 109.48 130.111 118.771C130.212 124.663 130.791 140.258 131.865 151.865C131.931 152.576 137.718 152.04 137.718 152.04C137.718 152.04 141.225 114.356 141.55 107.059C141.642 104.863 135.701 99.3672 131.071 104.569Z" fill="#212957"/>
<path d="M115.757 28.1992L125.942 23.5908L131.203 25.1636L137.7 24.4211L144.86 27.5314C144.86 27.5314 148.091 30.6461 145.092 40.6448C142.094 50.6435 142.536 67.1615 142.536 67.1615L116.537 68.8133C116.537 68.8133 118.295 33.7389 115.757 28.1992Z" fill="#D1DBEA"/>
<path d="M142.799 27.7247C142.799 27.7247 147.184 26.1783 150.306 31.7971C155.641 41.374 157.128 52.3656 157.483 54.5006C157.838 56.6356 157.724 62.8475 154.602 64.1654C151.481 65.4833 148.078 64.5696 148.078 64.5696L144.97 55.5242L147.201 54.8433L147.368 54.7993C147.368 54.7993 146.11 50.4633 143.716 43.3509C141.322 36.2385 142.799 27.7247 142.799 27.7247Z" fill="#D1DBEA"/>
<path d="M132.483 24.9394L135.052 27.751L137.622 24.0388L136.083 21.7544L132.483 24.9394Z" fill="#B0BFDE"/>
<path d="M126.845 21.9741L131.782 25.1635L129.449 27.9707L125.591 23.5908L126.845 21.9741Z" fill="#B0BFDE"/>
<path d="M111.105 111.611C111.105 111.611 112.731 112.143 117.887 112.323C123.043 112.503 111.258 153.93 111.258 153.93L103.967 151.241L109.228 109.546L111.105 111.611Z" fill="#212957"/>
<path d="M110.71 153.477L110.017 157.106H97.9954V155.788C97.9954 155.788 103.77 153.789 104.923 151.566C106.076 149.343 110.71 153.477 110.71 153.477Z" fill="#161711"/>
<path d="M132.908 21.1219C134.324 21.0296 135.386 19.5975 135.272 17.9281L134.452 5.54399C134.188 5.19501 133.862 4.89726 133.491 4.66538C132.703 4.1851 131.786 3.96029 130.866 4.02161C129.945 4.08294 129.066 4.42743 128.349 5.00804C126.643 6.35672 126.108 10.5653 126.433 12.6213L127.748 21.4865L132.908 21.1219Z" fill="#EC9568"/>
<path d="M130.265 2.41621L130.107 0.0219727L129.12 0.0878664L126.516 0.259197L124.946 0.364633C124.113 0.422142 123.337 0.808094 122.787 1.43798C122.237 2.06786 121.959 2.89034 122.013 3.72535L122.175 6.11959L123.162 6.05369L125.762 5.87796L127.331 5.77253C127.744 5.74517 128.147 5.63664 128.518 5.45316C128.888 5.26967 129.219 5.01481 129.492 4.70313C129.764 4.39146 129.973 4.02908 130.105 3.63669C130.238 3.24429 130.292 2.82958 130.265 2.41621Z" fill="#163F59"/>
<path d="M136.175 16.6061C136.199 16.9736 136.151 17.3423 136.033 17.6912C135.915 18.0401 135.73 18.3623 135.487 18.6393C135.245 18.9164 134.951 19.1428 134.621 19.3058C134.291 19.4687 133.933 19.565 133.566 19.589L127.226 20.0283C126.485 20.0765 125.755 19.8285 125.196 19.3385C124.638 18.8486 124.295 18.1567 124.245 17.4144L123.425 4.70517C123.4 4.33762 123.447 3.96874 123.565 3.61962C123.682 3.2705 123.867 2.94799 124.109 2.67054C124.351 2.39308 124.645 2.16613 124.974 2.00266C125.304 1.8392 125.662 1.74242 126.029 1.71787L132.373 1.27856C132.742 1.25416 133.112 1.30314 133.461 1.42267C133.811 1.5422 134.133 1.72991 134.41 1.97497C134.687 2.22003 134.912 2.51758 135.074 2.85045C135.235 3.18333 135.329 3.54493 135.35 3.91441L136.175 16.6061Z" fill="#F7B68B"/>
<path d="M130.304 0.00895398C130.825 -0.0259186 131.347 0.069875 131.823 0.287692C132.298 0.505509 132.712 0.838491 133.027 1.25659L134.105 1.1863C134.425 1.16482 134.745 1.20666 135.049 1.30941C135.352 1.41217 135.633 1.57383 135.874 1.78517C136.115 1.9965 136.312 2.25336 136.454 2.54107C136.596 2.82878 136.68 3.14169 136.701 3.46192L137.1 9.48924L135.39 9.60347L135.228 7.15213C135.196 6.69741 134.986 6.27375 134.643 5.974C134.301 5.67426 133.853 5.52287 133.399 5.55304L132.4 5.61893L129.8 5.79027L128.23 5.8957C127.817 5.92374 127.403 5.86994 127.011 5.73736C126.619 5.60479 126.256 5.39605 125.945 5.12307C125.633 4.8501 125.379 4.51824 125.195 4.14652C125.012 3.77479 124.903 3.37048 124.876 2.95672L124.705 0.38237L130.304 0.00895398Z" fill="#163F59"/>
<path d="M134.951 11.2068C134.938 11.0105 134.964 10.8136 135.027 10.6274C135.09 10.4411 135.189 10.2692 135.319 10.1214C135.448 9.97366 135.606 9.85298 135.782 9.76633C135.958 9.67967 136.15 9.62874 136.346 9.61645H136.468C136.664 9.60271 136.86 9.62774 137.046 9.6901C137.232 9.75245 137.404 9.85093 137.551 9.97987C137.699 10.1088 137.82 10.2657 137.908 10.4415C137.995 10.6174 138.047 10.8087 138.06 11.0047L138.178 12.8234C138.191 13.0193 138.166 13.2159 138.103 13.4018C138.04 13.5878 137.942 13.7596 137.812 13.9073C137.683 14.055 137.526 14.1757 137.351 14.2626C137.175 14.3495 136.984 14.4009 136.788 14.4137H136.666C136.376 14.4327 136.088 14.3673 135.835 14.2254C135.582 14.0835 135.376 13.8712 135.241 13.6142" fill="#F7B68B"/>
<path d="M97.7718 46.2285L109.276 52.9148L104.037 61.0596L103.336 61.411L97.044 47.094L97.7718 46.2285Z" fill="#C5E1F9"/>
<path d="M94.4879 46.4219L96.2723 47.0413L101.779 59.1662L102.104 61.7362C102.104 61.7362 101.323 61.6835 101.227 61.5473C101.13 61.4111 94.4879 46.4219 94.4879 46.4219Z" fill="#003E99"/>
<path d="M119.86 44.1196L118.054 44.1723C118.054 44.1723 111.477 49.343 109.575 51.9393C107.672 54.5356 103.941 59.0869 103.656 60.765C103.586 61.178 103.537 61.3142 103.524 61.424C103.51 61.1767 103.51 60.9289 103.524 60.6816C103.524 60.6816 103.55 57.8393 102.902 56.2182C102.253 54.5972 97.7718 46.2327 97.7718 46.2327C97.7718 46.2327 95.9347 46.9356 95.5796 46.9883C95.2245 47.041 101.718 61.3845 101.718 61.3845C101.888 61.5913 102.112 61.7473 102.365 61.8356C102.618 61.9239 102.89 61.9411 103.151 61.8853C104.028 61.67 104.467 61.8853 105.094 61.033C105.345 60.5865 105.57 60.1259 105.769 59.6536L119.86 44.1196Z" fill="#EAF4FE"/>
<path d="M121.43 43.0127L120.992 42.9819L104.949 60.2512C104.879 60.4222 104.852 60.6077 104.87 60.7915C104.842 61.029 104.729 61.2484 104.553 61.4097C104.377 61.571 104.149 61.6634 103.91 61.6701C103.252 61.7273 102.288 61.881 101.718 61.6701C101.148 61.4593 94.4879 46.4217 94.4879 46.4217L94.1898 46.5579L100.889 61.1166C100.889 61.1166 100.727 61.4944 100.942 61.6306C101.432 61.901 101.949 62.1189 102.485 62.2808C102.752 62.3071 118.821 69.0461 118.821 69.0461L120.904 68.2334L121.553 67.2054L132.382 55.7834L121.43 43.0127Z" fill="#0450CF"/>
<path d="M132.799 54.9707L121.43 43.0083L105.361 60.4621L121 67.8512L133.531 55.7307L132.799 54.9707Z" fill="#006FA0"/>
<path d="M138.284 52.6733C138.284 52.6733 137.407 52.2648 135.473 51.4257C133.54 50.5866 132.233 49.2906 131.663 49.3434C131.093 49.3961 127.993 51.1841 127.993 51.1841L123.456 53.3806C123.456 53.3806 122.579 54.1362 122.807 54.5975C123.035 55.0588 123.21 55.0368 123.618 55.0017C124.026 54.9665 128.318 53.407 128.318 53.407L122.346 56.6798L120.619 57.7913C120.427 57.9769 120.288 58.2104 120.216 58.4678C120.185 58.7665 120.321 59.1443 120.698 59.118C121.06 59.1454 121.424 59.0804 121.754 58.9291C122.158 58.7094 124.885 57.4662 124.885 57.4662C124.885 57.4662 121.886 58.9027 121.347 59.4958C120.807 60.0889 120.834 60.3744 120.943 60.66C121.053 60.9455 121.456 61.0114 121.456 61.0114L123.78 59.7945C123.78 59.7945 123.105 60.1723 123.157 60.3349C123.197 60.4534 123.273 60.5563 123.375 60.6289C123.476 60.7014 123.598 60.74 123.723 60.739C124.021 60.7127 126.612 59.8604 126.612 59.8604L129.125 59.2674L132.395 58.9159L136.473 57.8835C136.473 57.8835 137.201 58.0768 137.284 57.8308C137.367 57.5848 139.336 53.7013 138.284 52.6733Z" fill="#F7B68B"/>
<path d="M120.917 68.2335L105.449 61.0596C105.232 61.4388 104.887 61.7273 104.476 61.8723C103.695 62.2237 102.073 62.1447 102.073 62.1447L118.817 69.0462C118.817 69.0462 120.834 68.8529 120.917 68.2335Z" fill="#1084AD"/>
<path d="M109.276 65.1453C109.202 65.3117 109.163 65.4921 109.163 65.6746C109.163 65.8571 109.202 66.0375 109.276 66.204C109.518 66.8234 109.575 67.2056 110.219 67.4209C110.864 67.6362 110.925 67.6625 111.245 67.3945C111.565 67.1265 112.951 66.0766 112.951 66.0766L114.029 64.6137C114.029 64.6137 114.354 63.9372 113.919 63.7746C113.485 63.6121 113.108 63.5593 112.543 64.1832C111.983 64.728 111.335 65.1736 110.627 65.5011C110.311 65.6153 109.276 65.1453 109.276 65.1453Z" fill="#F7B68B"/>
<path d="M110.868 67.2846C110.816 67.4157 110.795 67.5568 110.805 67.6974C110.814 67.838 110.856 67.9747 110.925 68.0973C111.053 68.2885 111.22 68.4502 111.415 68.5714C111.61 68.6927 111.828 68.7707 112.056 68.8002C112.464 68.7738 115.055 67.4208 115.055 67.4208L117.028 64.4993L118.593 62.1183C118.593 62.1183 118.431 61.6043 118.107 61.5472C117.946 61.4958 117.775 61.4917 117.612 61.5353C117.45 61.5789 117.303 61.6684 117.19 61.7932C116.58 62.5548 116.012 63.3497 115.489 64.1743L113.705 65.6064C113.705 65.6064 111.438 67.0693 110.868 67.2846Z" fill="#F7B68B"/>
<path d="M121.184 62.4698C121.184 62.4698 121.053 61.7361 120.619 61.8196C120.185 61.9031 119.457 62.6323 118.672 63.4714C117.887 64.3105 117.484 64.7893 117.484 64.7893L116.107 65.7646L113.038 68.0666L112.766 68.418C112.766 68.418 112.416 68.932 112.902 69.0682C113.389 69.2044 113.713 69.7447 114.498 69.3933C115.283 69.0418 117.844 67.1177 117.844 67.1177L119.466 64.9519L120.614 63.3045L121.184 62.4698Z" fill="#F7B68B"/>
<path d="M121.053 63.2517C121.404 63.2517 121.491 63.7393 121.491 63.7393L118.9 67.5569C118.9 67.5569 115.875 69.7227 115.577 69.8853C115.475 69.9299 115.364 69.9526 115.253 69.9519C115.141 69.9512 115.031 69.9271 114.93 69.8812C114.828 69.8353 114.737 69.7685 114.663 69.6852C114.588 69.6019 114.532 69.504 114.498 69.3976C114.336 68.8529 118.655 65.58 118.655 65.58C118.655 65.58 120.356 63.2253 121.053 63.2517Z" fill="#F7B68B"/>
<path d="M149.56 56.4425L137.775 52.4404C137.14 53.2738 136.725 54.2545 136.569 55.2915L136.28 57.2992C142.028 61.6088 148.464 65.4528 151.134 63.5198C156.452 59.6583 149.56 56.4425 149.56 56.4425Z" fill="#F7B68B"/>
</g>
<defs>
<clipPath id="clip0_18_335">
<rect width="268" height="173" fill="white"/>
</clipPath>
</defs>
</svg>
