<svg width="260" height="207" viewBox="0 0 260 207" fill="none" xmlns="http://www.w3.org/2000/svg">
<g clip-path="url(#clip0_18_497)">
<path d="M214.607 147.345L215.361 147.231C214.589 142.011 213.858 137.85 213.35 135.822C210.441 124.173 206.253 117.218 206.212 117.15L205.563 117.549C205.604 117.617 209.779 124.662 212.615 136.008C213.096 138.013 213.822 142.143 214.607 147.345Z" fill="#47C6BD"/>
<path d="M206.13 118.346C206.181 116.832 205.79 115.336 205.005 114.04C204.551 113.338 203.19 112.464 202.55 112.894C201.91 113.325 201.951 114.57 202.627 115.611C203.507 116.84 204.723 117.79 206.13 118.346Z" fill="#47C6BD"/>
<path d="M207.773 122.036C207.007 120.903 205.94 120.007 204.692 119.446C203.979 119.156 202.545 119.156 202.287 119.781C202.028 120.406 202.741 121.284 203.757 121.71C205.039 122.189 206.43 122.302 207.773 122.036Z" fill="#47C6BD"/>
<path d="M210.001 128.533C209.28 127.58 208.269 126.884 207.12 126.55C206.484 126.409 205.264 126.713 205.1 127.401C204.937 128.089 205.622 128.836 206.543 129.049C207.722 129.253 208.934 129.072 210.001 128.533Z" fill="#47C6BD"/>
<path d="M207.465 121.913C208.609 121.599 209.622 120.924 210.351 119.989C210.718 119.455 210.886 118.219 210.305 117.816C209.724 117.413 208.79 117.766 208.254 118.54C207.632 119.55 207.355 120.733 207.465 121.913Z" fill="#47C6BD"/>
<path d="M210.401 128.375C211.731 127.884 212.89 127.021 213.74 125.889C214.194 125.237 214.48 123.779 213.877 123.363C213.273 122.946 212.216 123.435 211.558 124.377C210.795 125.571 210.394 126.959 210.401 128.375Z" fill="#47C6BD"/>
<path d="M212.715 135.324C212.715 135.324 214.889 134.948 215.973 133.386C216.368 132.816 216.468 131.439 215.755 130.946C215.043 130.452 213.94 130.778 213.391 131.602C212.306 133.164 212.715 135.324 212.715 135.324Z" fill="#47C6BD"/>
<path d="M212.152 135.342C212.152 135.342 211.245 133.377 209.429 132.626C208.771 132.359 207.387 132.508 207.079 133.264C206.77 134.02 207.356 134.976 208.313 135.36C210.124 136.112 212.152 135.342 212.152 135.342Z" fill="#47C6BD"/>
<path d="M248.229 80.654C248.515 80.9483 248.401 81.7225 248.083 82.6507C249.218 82.0123 250.207 81.8719 250.661 82.4243C251.215 83.0944 250.543 84.9235 249.626 86.4629C250.566 86.3859 251.26 86.5489 251.414 86.979C251.705 87.7894 249.345 89.4918 247.843 90.1076C246.967 90.4607 240.451 93.1003 240.909 92.0408C239.348 93.3629 239.87 88.8715 243.437 84.0904C245.315 81.5686 247.525 79.9432 248.229 80.654Z" fill="#47C6BD"/>
<path d="M238.921 92.7925C239.407 92.9771 239.932 93.0324 240.445 92.953C240.958 92.8737 241.442 92.6623 241.848 92.3397C242.302 91.9322 242.906 90.5287 242.602 89.6549C242.554 89.4665 242.455 89.2946 242.317 89.1577C242.179 89.0207 242.006 88.9238 241.816 88.8773C241.627 88.8308 241.429 88.8365 241.243 88.8937C241.057 88.9509 240.889 89.0575 240.759 89.2021C239.443 90.3023 238.921 92.7925 238.921 92.7925Z" fill="#47C6BD"/>
<path d="M218.691 100.394C218.837 100.516 214.948 98.9632 214.108 93.0955C213.75 91.0264 214.902 87.3998 216.037 87.6624C217.171 87.925 217.639 90.1345 217.897 92.2534C218.238 96.1788 218.61 100.258 218.691 100.394Z" fill="#47C6BD"/>
<path d="M217.557 98.017C217.489 98.1211 218.092 95.3004 214.235 93.5392C212.906 92.8284 209.243 92.9959 208.644 93.9376C208.041 94.7888 209.779 95.2959 211.63 95.7713C213.7 96.244 215.694 96.9997 217.557 98.017Z" fill="#47C6BD"/>
<path d="M218.478 100.236C217.955 99.0171 217.151 97.9396 216.13 97.0912C215.109 96.2428 213.902 95.6478 212.606 95.3549C210.972 94.8569 207.778 95.9797 207.741 96.9848C207.687 97.8904 209.72 97.8903 211.789 98.1529C214.13 98.4228 216.399 99.1293 218.478 100.236Z" fill="#47C6BD"/>
<path d="M214.784 97.5327C215.852 95.5929 216.63 93.5079 217.094 91.3436C217.48 90.0623 218.002 87.5314 218.809 87.8845C219.617 88.2377 220.348 91.09 219.513 93.3176C217.875 97.5282 214.653 97.5056 214.784 97.5327Z" fill="#47C6BD"/>
<path d="M218.791 100.254C218.927 100.322 216.413 97.8588 218.061 93.3856C218.542 91.7602 221.364 89.3108 222.362 89.6775C223.27 89.9628 222.127 91.6651 221.069 93.5712C219.862 95.6208 219.087 97.8948 218.791 100.254Z" fill="#47C6BD"/>
<path d="M217.226 99.0224C217.176 98.9183 215.106 96.1927 212.728 93.4535C211.953 92.4031 210.346 90.257 210.818 89.5553C211.29 88.8535 213.849 89.7409 215.469 91.819C218.61 95.8667 217.198 99.1718 217.226 99.0224Z" fill="#47C6BD"/>
<path d="M230.49 82.3335C231.677 79.4146 232.168 76.2605 231.924 73.12C231.751 71.3089 230.435 68.3072 229.174 68.4294C227.912 68.5516 227.105 70.9331 227.359 73.5546C227.707 76.6834 228.779 79.6887 230.49 82.3335Z" fill="#47C6BD"/>
<path d="M229.964 85.6932C229.188 84.5794 229.056 83.3027 226.047 79.6716C225.113 78.268 223.075 75.8412 224.146 74.8588C225.294 73.7857 228.716 74.6278 230.163 77.3127C232.918 82.4967 230.49 83.9999 229.964 85.6932Z" fill="#47C6BD"/>
<path d="M230.835 85.0048C230.971 84.9549 232.65 82.4784 235.949 79.042C237.002 77.6837 239.579 75.0305 238.944 73.6089C238.204 72.0831 234.497 72.2506 232.382 74.7181C228.303 79.5672 230.944 85.2402 230.835 85.0048Z" fill="#47C6BD"/>
<path d="M230.009 86.458C230.009 86.6074 230.699 81.2196 226.987 78.408C225.743 77.3033 222.449 77.1584 221.995 78.0594C221.591 78.8834 223.32 79.8704 224.976 81.1246C226.968 82.5785 228.674 84.3865 230.009 86.458Z" fill="#47C6BD"/>
<path d="M230.159 85.5798C230.095 85.6975 231.366 80.115 235.686 77.6113C237.197 76.6061 240.101 76.5111 240.196 77.3124C240.292 78.1138 238.59 78.9243 236.68 80.0969C234.235 81.5775 232.035 83.4271 230.159 85.5798Z" fill="#47C6BD"/>
<path d="M227.277 82.5692C227.549 82.3519 228.162 82.3881 228.761 82.6507C228.72 82.4877 228.679 82.3202 228.652 82.1527C228.489 81.1747 228.793 80.3054 229.337 80.2873C229.882 80.2692 230.522 81.4147 230.631 82.0983C230.674 82.3573 230.698 82.6191 230.703 82.8816C230.751 82.8181 230.802 82.7576 230.857 82.7005C231.729 81.8267 233.335 81.8448 233.689 82.4243C234.043 83.0039 232.927 83.9003 232.5 84.3802C231.783 85.021 231.105 85.7028 230.467 86.4221C230.336 86.9609 229.56 85.8155 228.198 84.4074C227.767 83.8505 226.828 82.9088 227.277 82.5692Z" fill="#47C6BD"/>
<path d="M213.414 159.148C214.907 145.675 217.963 132.42 222.521 119.65C228.602 102.898 241.127 91.8959 241.231 91.7873L240.732 91.2168C240.605 91.3255 227.958 102.45 221.804 119.392C213.368 142.636 212.547 158.148 212.542 158.351" fill="#47C6BD"/>
<path d="M226.801 110.341C233.154 96.265 230.603 84.9869 230.581 84.8691L229.841 85.0457C229.841 85.1544 232.341 96.2016 226.106 110.029L226.801 110.341Z" fill="#47C6BD"/>
<path d="M216.173 98.1213C215.782 97.5689 215.179 96.763 215.556 96.4325C215.932 96.102 217.094 96.2921 217.725 97.1252C218.256 96.2197 219.331 95.7896 219.758 96.1835C220.184 96.5774 219.64 97.9402 219.449 98.5786C218.755 100.29 218.492 101.431 218.451 101.472C218.265 101.394 218.084 101.303 217.911 101.2C217.209 100.51 216.45 99.8799 215.642 99.3166C214.857 98.814 214.063 98.2979 214.208 97.9583C214.353 97.6187 215.415 97.8089 216.173 98.1213Z" fill="#47C6BD"/>
<path d="M218.315 130.144L219.059 130.294C222.807 111.994 218.206 99.8234 218.151 99.7012L217.443 99.9773C217.498 100.095 222.013 112.075 218.315 130.144Z" fill="#47C6BD"/>
<path d="M218.846 130.466C222.562 127.116 232.913 118.504 236.779 115.978C246.736 109.458 254.514 107.177 254.591 107.154L254.382 106.42C254.305 106.42 246.345 108.802 236.357 115.34C232.478 117.88 222.068 126.532 218.337 129.896L218.846 130.466Z" fill="#47C6BD"/>
<path d="M253.633 107.348C254.63 106.196 255.942 105.359 257.409 104.94C258.23 104.732 259.809 104.999 260 105.759C260.191 106.52 259.301 107.403 258.099 107.702C256.607 108.018 255.056 107.895 253.633 107.348Z" fill="#47C6BD"/>
<path d="M249.88 108.951C251.22 108.638 252.62 108.704 253.924 109.141C254.65 109.409 255.707 110.387 255.467 111.025C255.226 111.663 254.105 111.835 253.066 111.446C251.793 110.926 250.69 110.062 249.88 108.951Z" fill="#47C6BD"/>
<path d="M243.8 112.229C244.982 112.02 246.201 112.196 247.276 112.732C247.843 113.053 248.537 114.09 248.183 114.729C247.829 115.367 246.822 115.435 245.996 114.964C244.987 114.313 244.217 113.353 243.8 112.229Z" fill="#47C6BD"/>
<path d="M250.198 109.069C249.567 108.058 249.282 106.869 249.386 105.682C249.477 105.039 250.198 104.012 250.897 104.111C251.596 104.211 252.054 105.107 251.918 106.04C251.687 107.208 251.083 108.27 250.198 109.069Z" fill="#47C6BD"/>
<path d="M243.614 111.84C242.966 110.573 242.7 109.147 242.847 107.733C242.956 106.95 243.754 105.678 244.471 105.782C245.188 105.886 245.647 106.964 245.488 108.105C245.237 109.504 244.586 110.801 243.614 111.84Z" fill="#47C6BD"/>
<path d="M237.156 115.398C237.156 115.398 235.795 113.642 236.076 111.749C236.176 111.066 237.043 109.979 237.891 110.097C238.74 110.214 239.33 111.192 239.189 112.188C238.935 114.081 237.156 115.398 237.156 115.398Z" fill="#47C6BD"/>
<path d="M237.56 115.793C237.56 115.793 239.575 114.964 241.417 115.652C242.084 115.901 243.005 116.956 242.715 117.721C242.425 118.486 241.354 118.799 240.374 118.432C238.531 117.739 237.56 115.793 237.56 115.793Z" fill="#47C6BD"/>
<path d="M230.944 119.759C230.544 118.878 230.455 117.889 230.69 116.952C230.826 116.363 231.488 115.285 232.015 115.208C232.541 115.132 232.782 115.824 232.582 116.68C232.256 117.809 231.698 118.857 230.944 119.759Z" fill="#47C6BD"/>
<path d="M230.74 120.229C232.012 119.823 233.371 119.766 234.674 120.062C235.482 120.238 236.943 121.008 236.993 121.583C237.043 122.158 236.085 122.407 234.896 122.149C233.402 121.774 231.993 121.123 230.74 120.229Z" fill="#47C6BD"/>
<path d="M21.2511 69.5612C21.2511 69.5612 22.9165 64.4677 21.0196 59.7772C20.3299 58.0793 17.716 55.725 15.9417 56.4358C14.1674 57.1466 13.6183 59.8858 14.6121 62.3533C16.5089 67.0484 21.2511 69.5612 21.2511 69.5612Z" fill="#C5EDE3"/>
<path d="M23.8377 77.6024C23.8377 77.6024 21.5687 73.5276 17.4347 72.0289C15.9463 71.4947 12.8968 71.8569 12.3295 73.4506C11.7623 75.0443 13.1736 77.0183 15.3473 77.797C19.4768 79.2821 23.8377 77.6024 23.8377 77.6024Z" fill="#C5EDE3"/>
<path d="M28.6252 86.2226C28.6252 86.2226 24.8633 83.42 20.5023 83.7415C18.9231 83.8592 16.3002 85.4303 16.4182 87.1191C16.5362 88.8078 18.6554 90.0303 20.9561 89.8582C25.3171 89.5413 28.6252 86.2226 28.6252 86.2226Z" fill="#C5EDE3"/>
<path d="M24.051 77.7701C24.051 77.7701 28.067 76.113 30.404 72.4185C31.2481 71.0829 31.7654 68.1717 30.581 67.4382C29.3966 66.7047 27.4045 67.8004 26.152 69.7427C23.815 73.4372 24.051 77.7701 24.051 77.7701Z" fill="#C5EDE3"/>
<path d="M28.0715 86.5124C28.0715 86.5124 32.2146 84.9323 34.5381 81.2424C35.3821 79.8841 35.8314 76.9593 34.5926 76.1805C33.3537 75.4018 31.2708 76.4658 30.0546 78.4126C27.7085 82.1071 28.0715 86.5124 28.0715 86.5124Z" fill="#C5EDE3"/>
<path d="M35.7271 97.3562C35.7271 97.3562 39.4164 96.4869 41.1726 93.6662C41.8215 92.6475 41.9213 90.2479 40.6824 89.4691C39.4436 88.6904 37.6103 89.3514 36.6709 90.8274C34.9057 93.6617 35.7271 97.3562 35.7271 97.3562Z" fill="#C5EDE3"/>
<path d="M35.2596 97.614C35.2596 97.614 32.5369 95.2053 29.0109 94.9382C27.7312 94.8431 25.4441 95.6581 25.3533 96.8715C25.2626 98.0848 26.8191 99.1805 28.6842 99.3209C32.2192 99.588 35.2596 97.614 35.2596 97.614Z" fill="#C5EDE3"/>
<path d="M56.3519 146.815C55.9031 147.266 55.3654 147.619 54.7727 147.852L54.4959 147.005L54.6365 147.426L54.4959 147.005C54.5775 146.978 56.4698 146.308 57.3456 143.428C58.3304 140.2 57.6542 135.623 55.3354 129.819C52.1588 121.864 45.9237 111.817 36.8297 99.9683C26.2609 86.2 23.3294 77.2219 21.4008 71.2772C20.9016 69.7604 20.4932 68.4429 20.0077 67.3654L20.8245 67.0122C21.31 68.1305 21.7321 69.4616 22.2494 71.0055C24.1689 76.8913 27.0777 85.7835 37.5512 99.4295C57.804 125.812 59.9549 138.086 58.1988 143.736C57.8609 144.905 57.2245 145.966 56.3519 146.815Z" fill="#C5EDE3"/>
<path d="M61.6521 132.843C82.3405 141.966 95.9996 160.461 99.9431 181.238C81.8822 192.326 58.9884 194.703 38.2955 185.58C17.6026 176.457 3.94343 157.962 -1.52588e-05 137.185C18.0654 126.097 40.9592 123.725 61.6521 132.843Z" fill="#C5EDE3"/>
<path d="M8.01849 140.341L96.2901 179.255" stroke="white" stroke-width="2.68" stroke-miterlimit="10"/>
<path d="M26.1792 148.477L11.3675 155.449" stroke="white" stroke-width="2.68" stroke-miterlimit="10"/>
<path d="M41.2315 155.11L22.9755 163.708" stroke="white" stroke-width="2.68" stroke-miterlimit="10"/>
<path d="M56.2792 161.743L25.7617 176.118" stroke="white" stroke-width="2.68" stroke-miterlimit="10"/>
<path d="M71.3315 168.38L41.649 182.366" stroke="white" stroke-width="2.68" stroke-miterlimit="10"/>
<path d="M86.3838 175.013L69.8522 182.8" stroke="white" stroke-width="2.68" stroke-miterlimit="10"/>
<path d="M24.4775 147.408L19.6764 131.788" stroke="white" stroke-width="2.68" stroke-miterlimit="10"/>
<path d="M39.5298 154.046L32.0422 129.692" stroke="white" stroke-width="2.68" stroke-miterlimit="10"/>
<path d="M54.5821 160.678L45.2067 130.194" stroke="white" stroke-width="2.68" stroke-miterlimit="10"/>
<path d="M69.6298 167.316L60.0049 135.999" stroke="white" stroke-width="2.68" stroke-miterlimit="10"/>
<path d="M84.6821 173.949L76.414 147.046" stroke="white" stroke-width="2.68" stroke-miterlimit="10"/>
<path d="M105.107 127.437C119.27 147.983 121.371 173.27 113.003 195.106C89.5739 195.106 66.662 184.077 52.4992 163.527C38.3363 142.976 36.2353 117.699 44.6032 95.8667C68.0325 95.8803 90.9489 106.891 105.107 127.437Z" fill="#C5EDE3"/>
<path d="M50.3119 103.473L110.721 191.122" stroke="white" stroke-width="2.96" stroke-miterlimit="10"/>
<path d="M62.6641 121.624L44.6803 119.618" stroke="white" stroke-width="2.96" stroke-miterlimit="10"/>
<path d="M72.9652 136.565L50.802 134.097" stroke="white" stroke-width="2.96" stroke-miterlimit="10"/>
<path d="M83.2663 151.515L46.2142 147.381" stroke="white" stroke-width="2.96" stroke-miterlimit="10"/>
<path d="M93.5673 166.46L57.5181 162.444" stroke="white" stroke-width="2.96" stroke-miterlimit="10"/>
<path d="M103.868 181.406L83.7926 179.169" stroke="white" stroke-width="2.96" stroke-miterlimit="10"/>
<path d="M61.6839 119.636L66.24 102.169" stroke="white" stroke-width="2.96" stroke-miterlimit="10"/>
<path d="M71.9804 134.586L79.0914 107.349" stroke="white" stroke-width="2.96" stroke-miterlimit="10"/>
<path d="M82.2861 149.532L91.1849 115.435" stroke="white" stroke-width="2.96" stroke-miterlimit="10"/>
<path d="M92.5826 164.473L101.727 129.452" stroke="white" stroke-width="2.96" stroke-miterlimit="10"/>
<path d="M102.888 179.423L110.734 149.337" stroke="white" stroke-width="2.96" stroke-miterlimit="10"/>
<path d="M32.0105 196.424C29.315 192.294 32.6639 188.781 45.4472 186.916C59.4059 184.878 72.7338 186.264 83.7019 188.79C57.8358 176.285 27.6722 158.723 55.2083 156.694C63.7941 156.056 76.9903 160.208 91.6841 166.687C75.3022 153.385 66.2718 142.45 76.2144 140.427C85.4309 138.543 104.218 149.36 124.221 163.721C112.822 151.687 106.224 141.183 111.342 136.23C115.522 132.187 124.43 136.827 134.681 145.425C134.227 137.864 137.404 133.3 144.664 134.215C151.503 135.075 157.039 143.831 161.001 154.331C167.558 138.032 184.879 128.071 202.35 133.051C222.871 138.856 206.389 177.874 197.204 196.437L32.0105 196.424Z" fill="#47C6BD"/>
<path d="M99.8977 181.492C99.7888 181.406 99.6754 181.324 99.5665 181.247L99.7389 181.184C101.273 180.582 102.262 179.45 101.949 178.649C101.636 177.847 100.134 177.689 98.6044 178.286C98.4728 178.336 98.3458 178.395 98.2233 178.454C98.2233 178.39 98.2232 178.332 98.255 178.268C98.5046 176.643 98.0145 175.226 97.1613 175.099C96.3082 174.972 95.4234 176.186 95.1738 177.815C95.1738 177.951 95.142 178.092 95.1284 178.227C95.0821 178.184 95.0336 178.144 94.9832 178.105C93.6989 177.082 92.2196 176.792 91.6796 177.462C91.1395 178.132 91.7522 179.509 93.0409 180.537C93.1498 180.627 93.2587 180.704 93.3722 180.781L93.2043 180.844C91.6659 181.442 90.6767 182.578 90.9898 183.375C91.3029 184.172 92.805 184.34 94.3342 183.738C94.4636 183.691 94.5896 183.635 94.7109 183.57C94.7063 183.632 94.6972 183.695 94.6837 183.756C94.4341 185.386 94.9287 186.803 95.7819 186.925C96.635 187.047 97.5199 185.838 97.7649 184.208C97.7649 184.068 97.8012 183.932 97.8103 183.796L97.9555 183.919C99.2397 184.942 100.719 185.232 101.255 184.562C101.79 183.891 101.186 182.52 99.8977 181.492ZM96.2266 182.601C95.909 182.558 95.6115 182.422 95.3718 182.21C95.1321 181.997 94.9611 181.719 94.8805 181.409C94.7999 181.1 94.8134 180.774 94.9192 180.472C95.025 180.17 95.2184 179.906 95.4747 179.715C95.7311 179.523 96.0389 179.411 96.3589 179.394C96.6789 179.378 96.9967 179.456 97.2719 179.62C97.5471 179.784 97.7672 180.026 97.9043 180.315C98.0414 180.603 98.0892 180.927 98.0417 181.243C97.9735 181.658 97.7457 182.03 97.4067 182.28C97.0678 182.531 96.6444 182.639 96.2266 182.583V182.601Z" fill="white"/>
<path d="M200.966 151.397C201.954 149.095 203.701 147.199 205.917 146.023C207.501 145.17 209.137 144.414 210.814 143.759C209.938 145.353 209.266 146.82 207.424 148.287C205.581 149.754 203.48 150.637 200.966 151.397Z" fill="#B7E5DA"/>
<path d="M191.786 155.617C191.786 155.617 194.568 150.732 194.677 146.344C194.786 141.957 194.137 140.006 194.146 140.006C194.155 140.006 191.831 144.271 191.459 148.495C191.042 153.249 191.772 155.612 191.786 155.617Z" fill="#B7E5DA"/>
<path d="M176.425 174.628C176.425 174.628 177.178 169.593 176.511 167.529C176.052 166.165 175.443 164.856 174.696 163.626C174.701 163.662 173.108 170.06 176.425 174.628Z" fill="#B7E5DA"/>
<path d="M178.803 171.998C178.803 171.998 181.948 166.266 182.284 162.336C182.619 158.406 181.303 157.02 181.308 157.025C181.385 157.097 176.203 167.529 178.803 171.998Z" fill="#B7E5DA"/>
<path d="M201.556 146.575C202.822 141.987 204.706 137.591 207.156 133.508C211.317 126.817 212.987 126.418 213.001 126.427C213.014 126.436 210.165 138.244 201.556 146.575Z" fill="#B7E5DA"/>
<path d="M194.799 162.594C194.799 162.594 199.337 158.102 203.78 155.553C208.222 153.004 210.165 152.791 210.169 152.796C210.174 152.8 203.807 160.611 194.799 162.594Z" fill="#B7E5DA"/>
<path d="M179.016 180.197C179.016 180.197 183.645 177.286 188.891 176.77C194.137 176.253 196.746 177.222 196.746 177.222C196.746 177.222 189.649 181.931 179.016 180.197Z" fill="#B7E5DA"/>
<path d="M193.86 164.848C195.985 164.268 198.19 164.035 200.39 164.16C203.657 164.459 205.468 165.555 205.468 165.559C205.468 165.564 198.271 167.447 193.86 164.848Z" fill="#B7E5DA"/>
<path d="M150.731 197.071C153.822 195.663 170.199 185.471 182.275 172.228C189.395 165.066 196.587 155.413 202.518 145.063C202.672 144.791 202.763 144.61 202.795 144.61L202.586 144.465L202.845 144.497L202.668 144.216C202.455 144.148 202.45 144.162 202.06 144.841C196.161 155.159 188.986 164.762 181.893 171.911C169.859 185.109 153.581 195.242 150.509 196.641L150.731 197.071Z" fill="#B7E5DA"/>
<path d="M194.527 157.451C196.492 155.513 199.8 152.556 201.574 150.972C202.8 149.876 202.8 149.876 202.804 149.749H202.541L202.359 149.93L202.541 149.749L202.346 149.577C202.291 149.631 201.824 150.03 201.229 150.587C199.451 152.176 196.133 155.114 194.159 157.084L194.527 157.451Z" fill="#B7E5DA"/>
<path d="M180.818 173.826C184.507 170.779 190.502 166.234 194.885 162.915C199.727 159.243 199.727 159.234 199.75 159.057L199.696 158.863L199.287 159.184L199.491 159.021L199.287 158.867C199.119 159.053 197.018 160.651 194.568 162.489C190.189 165.813 184.19 170.363 180.5 173.419L180.818 173.826Z" fill="#B7E5DA"/>
<path d="M190.161 163.218C190.819 160.918 191.7 157.333 192.049 155.888C193.184 151.211 193.184 151.211 192.957 151.098L192.734 151.551L192.843 151.315H192.585C192.548 151.678 190.77 159.298 189.676 163.087L190.161 163.218Z" fill="#B7E5DA"/>
<path d="M174.483 179.889C177.161 176.593 179.026 172.716 179.928 168.57L179.42 168.457C178.536 172.528 176.71 176.336 174.088 179.577L174.483 179.889Z" fill="#B7E5DA"/>
<path d="M174.751 179.468L174.855 179.282C175.4 178.34 176.534 176.38 176.575 172.536H176.058C176.012 176.24 174.964 178.051 174.401 179.024L174.292 179.214L174.751 179.468Z" fill="#B7E5DA"/>
<path d="M167.154 186.073C172.645 182.388 181.349 179.64 184.852 178.63C185.124 178.549 185.124 178.549 185.174 178.49L184.784 178.146L184.979 178.318L184.893 178.073L184.702 178.128C181.194 179.146 172.45 181.913 166.882 185.639L167.154 186.073Z" fill="#B7E5DA"/>
<path d="M217.33 176.417C219.832 176.625 222.33 175.973 224.409 174.569C225.909 173.575 227.344 172.488 228.707 171.314C226.891 171.346 225.271 171.246 223.102 172.179C220.933 173.111 219.168 174.56 217.33 176.417Z" fill="#B7E5DA"/>
<path d="M209.284 182.538C209.284 182.538 214.911 182.37 218.85 184.349C222.789 186.327 224.196 187.785 224.196 187.776C224.196 187.767 219.336 187.821 215.42 186.169C211.031 184.299 209.284 182.547 209.284 182.538Z" fill="#B7E5DA"/>
<path d="M221.868 178.155C226.524 179.189 231.299 179.587 236.063 179.336C243.936 178.807 245.075 177.525 245.075 177.503C245.075 177.48 233.272 174.469 221.868 178.155Z" fill="#B7E5DA"/>
<path d="M190.279 183.652C199.927 180.74 211.798 178.929 223.706 178.554C224.486 178.526 224.5 178.526 224.536 178.309L224.368 178.024L224.278 178.264L224.237 178.01C224.187 178.01 224.001 178.01 223.688 178.033C211.739 178.409 199.823 180.229 190.107 183.154L190.279 183.652Z" fill="#B7E5DA"/>
<path d="M209.098 179.758C211.748 178.929 215.905 177.394 218.174 176.588C218.927 176.312 219.535 176.095 219.594 176.072L219.526 175.823L219.644 175.588C219.531 175.533 219.531 175.533 217.983 176.099C215.746 176.923 211.585 178.454 208.948 179.269L209.098 179.758Z" fill="#B7E5DA"/>
<path d="M213.455 183.855L213.55 183.624H213.827C213.827 183.362 213.827 183.362 209.162 182.176C207.728 181.813 204.138 180.908 201.792 180.405L201.683 180.912C205.531 181.736 213.119 183.719 213.455 183.855Z" fill="#B7E5DA"/>
<path d="M166.909 193.485C166.909 193.485 171.542 190.574 176.788 190.062C182.034 189.551 184.643 190.515 184.643 190.515C184.643 190.515 177.546 195.219 166.909 193.485Z" fill="#B7E5DA"/>
<path d="M155.052 199.362C160.542 195.677 169.242 192.928 172.749 191.919C173.026 191.837 173.026 191.837 173.076 191.778L172.881 191.606L172.79 191.362L172.604 191.421C169.096 192.435 160.352 195.206 154.779 198.927L155.052 199.362Z" fill="#C5E1F9"/>
<path d="M183.046 151.465L176.575 147.159C176.784 146.821 177.006 146.486 177.242 146.154C178.136 144.867 179.29 143.781 180.631 142.966C181.971 142.151 183.468 141.625 185.025 141.423L185.76 144.873L185.991 141.341C189.513 141.178 193.22 142.586 196.165 145.534C196.351 145.724 196.533 145.919 196.71 146.109L192.281 151.411L197.885 147.576C201.27 152.334 201.397 158.197 198.416 162.517L191.682 159.067L197.127 164.106C197.018 164.21 196.914 164.319 196.805 164.427C194.081 166.951 190.48 168.32 186.763 168.244L186.141 164.654L185.769 168.203C182.867 168.018 180.102 166.907 177.882 165.034C176.856 164.145 176.01 163.069 175.386 161.865L182.193 157.6L174.574 159.841C173.566 156.513 173.925 152.619 175.586 149.038L183.046 151.465Z" fill="#B7E5DA"/>
<path d="M189.649 158.338C187.38 159.759 185.165 160.239 183.749 158.541C182.206 156.73 181.798 153.788 183.563 152.656C185.329 151.524 187.647 151.13 189.463 152.452C191.409 153.883 191.918 156.916 189.649 158.338Z" fill="#0450CF"/>
<path d="M190.874 150.849C190.157 151.302 189.454 151.452 189.004 150.917C188.555 150.383 188.387 149.414 188.945 149.056C189.212 148.856 189.534 148.743 189.867 148.731C190.201 148.718 190.53 148.808 190.81 148.989C190.968 149.085 191.098 149.219 191.191 149.379C191.284 149.538 191.335 149.718 191.342 149.902C191.348 150.086 191.309 150.269 191.227 150.434C191.145 150.599 191.024 150.742 190.874 150.849Z" fill="#F5FAFF"/>
<path d="M194.246 156.712C193.465 157.07 192.812 157.256 192.403 156.776C191.995 156.296 191.781 155.3 192.34 154.965C192.601 154.762 192.92 154.647 193.251 154.636C193.582 154.625 193.908 154.72 194.182 154.906C194.831 155.372 195.026 156.355 194.246 156.712Z" fill="#F5FAFF"/>
<path d="M183.6 154.902C182.928 155.495 181.875 155.354 181.503 154.902C181.291 154.605 181.17 154.254 181.152 153.891C181.134 153.527 181.221 153.166 181.403 152.851C181.857 152.298 182.896 152.398 183.468 152.81C183.623 152.933 183.75 153.087 183.842 153.262C183.933 153.437 183.987 153.629 183.999 153.827C184.012 154.024 183.983 154.221 183.914 154.406C183.845 154.592 183.738 154.76 183.6 154.902Z" fill="#F5FAFF"/>
<path d="M183.522 157.337C184.194 157.184 184.734 157.143 184.979 157.582C185.224 158.021 185.229 158.845 184.734 159.035C184.496 159.153 184.227 159.193 183.965 159.148C183.703 159.103 183.462 158.977 183.277 158.786C182.842 158.297 182.842 157.491 183.522 157.337Z" fill="#F5FAFF"/>
<path d="M187.833 158.243C188.101 158.086 188.417 158.033 188.721 158.093C189.026 158.153 189.297 158.322 189.485 158.569C189.604 158.837 189.643 159.133 189.598 159.423C189.553 159.713 189.426 159.983 189.231 160.203C188.777 160.556 187.988 160.316 187.602 159.904C187.501 159.783 187.427 159.642 187.383 159.49C187.34 159.338 187.329 159.179 187.351 159.023C187.373 158.866 187.427 158.716 187.51 158.582C187.593 158.448 187.703 158.332 187.833 158.243Z" fill="#F5FAFF"/>
<path d="M187.684 154.2L190.506 150.424L190.089 150.111L187.262 153.887L187.684 154.2Z" fill="#F5FAFF"/>
<path d="M189.054 155.974L193.156 155.961V155.44L189.077 155.454L189.054 155.974Z" fill="#F5FAFF"/>
<path d="M188.246 158.886L188.737 158.709L188.06 156.889L187.57 157.07L188.246 158.886Z" fill="#F5FAFF"/>
<path d="M185.733 156.246L184.437 157.884L184.847 158.207L186.143 156.569L185.733 156.246Z" fill="#F5FAFF"/>
<path d="M183.039 153.607L182.813 154.076L185.438 155.335L185.665 154.866L183.039 153.607Z" fill="#F5FAFF"/>
<path d="M195.897 176.647L189.449 172.36C189.794 172.02 190.173 171.717 190.579 171.454C193.163 169.748 196.12 168.688 199.201 168.362L200.109 172.595L200.39 168.298C203.317 168.223 206.188 169.113 208.558 170.829C209.018 171.17 209.453 171.542 209.861 171.943L205.413 177.258L211.118 173.36C214.349 177.589 214.807 183.583 210.868 187.396L204.17 183.982L209.239 188.686L209.125 188.763C205.949 190.75 202.836 192.127 199.95 192.543L199.31 188.867L198.915 192.648C197.45 192.789 195.974 192.564 194.617 191.994C193.261 191.424 192.068 190.527 191.146 189.383C190.462 188.576 189.854 187.708 189.331 186.789L195.857 182.714L188.387 184.91C186.803 181.202 186.536 177.104 188.115 174.148L195.897 176.647Z" fill="#B7E5DA"/>
<path d="M202.355 182.932C200.349 183.837 198.675 184.326 197.626 183.094C196.442 181.736 196.024 179.296 197.463 178.381C198.901 177.467 200.64 177.082 202.191 178.223C203.861 179.486 204.37 182.017 202.355 182.932Z" fill="#0450CF"/>
<path d="M194.64 179.142C195.385 179.536 195.87 180.047 195.63 180.722C195.389 181.396 194.636 182.008 194.046 181.704C193.738 181.574 193.478 181.353 193.3 181.07C193.122 180.788 193.036 180.457 193.052 180.124C193.059 179.94 193.111 179.76 193.204 179.601C193.296 179.442 193.427 179.308 193.584 179.211C193.741 179.113 193.919 179.056 194.103 179.044C194.288 179.032 194.472 179.066 194.64 179.142Z" fill="#F5FAFF"/>
<path d="M198.048 173.292C198.747 173.79 199.233 174.261 199.024 174.854C198.797 175.515 198.053 176.131 197.463 175.823C197.156 175.7 196.896 175.483 196.721 175.203C196.545 174.923 196.463 174.595 196.487 174.266C196.592 173.46 197.363 172.799 198.048 173.292Z" fill="#F5FAFF"/>
<path d="M201.801 183.393C202.654 183.683 203.072 184.652 202.859 185.204C202.709 185.537 202.466 185.82 202.16 186.018C201.853 186.216 201.495 186.322 201.13 186.323C200.417 186.191 199.991 185.254 200.063 184.557C200.093 184.363 200.163 184.177 200.268 184.011C200.374 183.845 200.512 183.703 200.676 183.594C200.839 183.485 201.024 183.41 201.217 183.376C201.411 183.341 201.61 183.347 201.801 183.393Z" fill="#F5FAFF"/>
<path d="M203.957 182.243C203.503 181.741 203.176 181.297 203.439 180.885C203.703 180.473 204.406 180.038 204.801 180.373C205.018 180.518 205.185 180.726 205.278 180.97C205.37 181.213 205.385 181.48 205.318 181.732C205.128 182.347 204.424 182.75 203.957 182.243Z" fill="#F5FAFF"/>
<path d="M202.586 178.078C202.318 177.924 202.114 177.678 202.015 177.385C201.916 177.093 201.927 176.774 202.046 176.489C202.219 176.252 202.456 176.07 202.73 175.964C203.003 175.858 203.302 175.833 203.589 175.891C204.125 176.104 204.311 176.91 204.143 177.449C204.088 177.596 204.002 177.731 203.892 177.844C203.782 177.957 203.65 178.046 203.503 178.105C203.357 178.164 203.2 178.192 203.042 178.188C202.884 178.183 202.729 178.146 202.586 178.078Z" fill="#F5FAFF"/>
<path d="M194.436 179.653L194.374 180.17L199.065 180.725L199.127 180.208L194.436 179.653Z" fill="#F5FAFF"/>
<path d="M197.983 174.678L197.532 174.939L199.569 178.44L200.02 178.178L197.983 174.678Z" fill="#F5FAFF"/>
<path d="M202.517 177.025L201.278 178.517L201.68 178.849L202.919 177.357L202.517 177.025Z" fill="#F5FAFF"/>
<path d="M203.979 181.157L204.057 180.641L201.983 180.342L201.91 180.858L203.979 181.157Z" fill="#F5FAFF"/>
<path d="M201.27 181.568L200.749 181.607L200.966 184.506L201.486 184.467L201.27 181.568Z" fill="#F5FAFF"/>
<path d="M154.543 173.415L149.47 167.189C149.976 166.91 150.514 166.693 151.072 166.542C154.098 165.657 157.282 165.449 160.397 165.935L159.943 170.712L161.668 166.221C164.775 167.04 167.495 168.923 169.351 171.54C169.646 171.952 169.918 172.383 170.172 172.817L163.783 176.942L171.116 174.678C173.48 180.442 172.246 187.147 166.614 189.202L160.488 183.208L164.245 189.755C160.284 190.253 156.694 190.484 153.722 190.031L154.176 186.549L152.76 189.854C149.679 189.189 147.351 187.668 146.094 184.738C145.626 183.669 145.272 182.553 145.036 181.41L152.656 179.391L144.714 179.269C144.338 175.221 145.272 171.065 147.677 168.566L154.543 173.415Z" fill="#B7E5DA"/>
<path d="M159.544 182.374C157.429 183.307 154.952 182.202 154.385 180.799C153.817 179.395 154.203 176.797 155.71 175.678C157.275 174.687 159.721 175.71 160.81 177.154C161.091 177.574 161.283 178.047 161.371 178.544C161.46 179.041 161.444 179.551 161.325 180.042C161.206 180.532 160.986 180.993 160.68 181.394C160.373 181.796 159.987 182.13 159.544 182.374Z" fill="#0450CF"/>
<path d="M153.146 175.719C153.699 176.358 153.953 177.028 153.491 177.53C153.028 178.033 152.093 178.363 151.675 177.87C151.442 177.637 151.285 177.34 151.224 177.017C151.162 176.694 151.199 176.36 151.331 176.059C151.405 175.894 151.518 175.749 151.661 175.637C151.803 175.525 151.971 175.45 152.149 175.416C152.328 175.383 152.511 175.393 152.685 175.446C152.858 175.498 153.016 175.592 153.146 175.719Z" fill="#F5FAFF"/>
<path d="M158.446 171.513C158.9 172.228 159.199 172.844 158.786 173.324C158.373 173.804 157.425 174.157 156.971 173.659C156.728 173.433 156.564 173.135 156.503 172.809C156.441 172.483 156.486 172.146 156.631 171.848C157.03 171.137 157.974 170.811 158.446 171.513Z" fill="#F5FAFF"/>
<path d="M158.251 182.284C158.941 182.859 158.972 183.914 158.578 184.349C158.316 184.604 157.986 184.778 157.628 184.85C157.27 184.922 156.898 184.89 156.558 184.756C155.941 184.381 155.887 183.353 156.209 182.728C156.308 182.559 156.441 182.412 156.6 182.297C156.759 182.182 156.94 182.101 157.132 182.059C157.324 182.018 157.523 182.016 157.715 182.055C157.908 182.094 158.09 182.172 158.251 182.284Z" fill="#F5FAFF"/>
<path d="M160.679 181.994C160.42 181.356 160.302 180.831 160.679 180.523C161.055 180.215 161.89 180.07 162.153 180.523C162.307 180.74 162.387 181 162.382 181.265C162.377 181.53 162.287 181.787 162.126 181.999C161.731 182.519 160.933 182.637 160.679 181.994Z" fill="#F5FAFF"/>
<path d="M160.928 177.602C160.733 177.362 160.634 177.059 160.648 176.75C160.662 176.441 160.789 176.149 161.005 175.927C161.251 175.767 161.538 175.682 161.831 175.682C162.125 175.682 162.412 175.767 162.657 175.927C163.079 176.326 162.961 177.141 162.607 177.58C162.502 177.697 162.374 177.792 162.23 177.857C162.086 177.923 161.931 177.957 161.773 177.96C161.615 177.962 161.458 177.931 161.313 177.87C161.167 177.808 161.036 177.717 160.928 177.602Z" fill="#F5FAFF"/>
<path d="M152.793 176.162L152.547 176.621L156.713 178.843L156.959 178.384L152.793 176.162Z" fill="#F5FAFF"/>
<path d="M157.966 176.11L157.45 176.188L158.059 180.2L158.576 180.122L157.966 176.11Z" fill="#F5FAFF"/>
<path d="M161.255 176.688L159.557 177.628L159.81 178.083L161.508 177.144L161.255 176.688Z" fill="#F5FAFF"/>
<path d="M159.502 179.463L159.244 179.915L161.066 180.95L161.324 180.498L159.502 179.463Z" fill="#F5FAFF"/>
<path d="M157.879 180.247L157.022 183.025L157.521 183.178L158.377 180.4L157.879 180.247Z" fill="#F5FAFF"/>
<path d="M168.62 163.803C168.62 163.803 166.805 159.044 165.207 157.568C164.131 156.607 162.952 155.767 161.691 155.064C161.727 155.083 163.483 161.439 168.62 163.803Z" fill="#B7E5DA"/>
<path d="M169.4 160.343C169.428 160.343 169.328 153.815 167.69 150.22C166.051 146.625 164.223 146.068 164.227 146.068C164.332 146.091 164.94 157.722 169.4 160.343Z" fill="#B7E5DA"/>
<path d="M169.514 169.34C170.223 165.145 169.939 160.842 168.683 156.776L168.184 156.925C169.415 160.906 169.695 165.119 169.001 169.227L169.514 169.34Z" fill="#B7E5DA"/>
<path d="M169.537 168.837V168.629C169.537 167.538 169.573 165.274 167.721 161.905L167.268 162.154C169.047 165.405 169.028 167.497 169.015 168.62V168.837H169.537Z" fill="#B7E5DA"/>
<path d="M162.83 69.7107H165.049V62.4395H162.83V69.7107Z" fill="#C5E1F9"/>
<path d="M162.83 88.7855H165.049V76.5249H162.83V88.7855Z" fill="#C5E1F9"/>
<path d="M162.83 103.319H165.049V91.624H162.83V103.319Z" fill="#C5E1F9"/>
<path d="M83.6293 195.192C83.6389 198.321 84.8888 201.319 87.1062 203.531C89.3236 205.743 92.3283 206.99 95.4642 207H152.374C155.515 206.997 158.526 205.754 160.75 203.54C162.973 201.327 164.227 198.325 164.236 195.192V52.7143C164.227 49.5844 162.976 46.5854 160.758 44.3722C158.54 42.159 155.534 40.9114 152.397 40.9019H95.4642C92.3275 40.9114 89.3222 42.1591 87.1046 44.3725C84.8871 46.5858 83.6377 49.5848 83.6293 52.7143V195.192Z" fill="#34D6CA"/>
<path d="M152.37 42.5728H95.4596C89.8457 42.5728 85.2947 47.1134 85.2947 52.7145V195.192C85.2947 200.793 89.8457 205.334 95.4596 205.334H152.37C157.984 205.334 162.535 200.793 162.535 195.192V52.7145C162.535 47.1134 157.984 42.5728 152.37 42.5728Z" fill="#00A19A"/>
<path d="M158.972 61.8735H88.8615V186.558H158.972V61.8735Z" fill="white"/>
<path d="M193.842 117.807H192.857C192.737 117.803 192.622 117.764 192.524 117.695C192.426 117.625 192.351 117.529 192.308 117.418L192.126 116.965C192.078 116.856 192.063 116.736 192.082 116.618C192.101 116.501 192.155 116.392 192.235 116.304L192.93 115.611C193.006 115.533 193.049 115.429 193.049 115.319C193.049 115.21 193.006 115.105 192.93 115.027L191.854 113.95C191.776 113.873 191.671 113.83 191.561 113.83C191.452 113.83 191.347 113.873 191.269 113.95L190.556 114.67C190.468 114.749 190.358 114.802 190.241 114.82C190.123 114.839 190.002 114.822 189.894 114.774L189.44 114.593C189.329 114.549 189.234 114.475 189.164 114.378C189.095 114.282 189.055 114.168 189.05 114.049V113.067C189.049 112.957 189.004 112.852 188.926 112.775C188.848 112.698 188.742 112.655 188.632 112.655H187.112C187.002 112.655 186.897 112.698 186.82 112.775C186.743 112.853 186.699 112.958 186.699 113.067V114.049C186.693 114.168 186.652 114.283 186.582 114.379C186.512 114.476 186.416 114.55 186.304 114.593L185.85 114.774C185.742 114.822 185.621 114.839 185.504 114.82C185.386 114.802 185.276 114.749 185.188 114.67L184.494 113.972C184.416 113.896 184.31 113.853 184.201 113.853C184.091 113.853 183.986 113.896 183.908 113.972L182.833 115.05C182.756 115.128 182.713 115.233 182.713 115.342C182.713 115.451 182.756 115.556 182.833 115.634L183.527 116.327C183.608 116.414 183.661 116.524 183.68 116.641C183.7 116.758 183.684 116.879 183.636 116.988L183.454 117.44C183.411 117.552 183.336 117.648 183.238 117.717C183.141 117.786 183.025 117.826 182.905 117.83H181.925C181.815 117.831 181.709 117.875 181.631 117.953C181.553 118.031 181.509 118.136 181.508 118.246V119.759C181.508 119.813 181.518 119.867 181.539 119.918C181.56 119.968 181.591 120.014 181.63 120.053C181.669 120.092 181.715 120.122 181.765 120.143C181.816 120.164 181.87 120.175 181.925 120.175H182.905C183.025 120.18 183.14 120.219 183.238 120.288C183.335 120.358 183.411 120.453 183.454 120.564L183.636 121.017C183.684 121.127 183.699 121.248 183.68 121.366C183.661 121.484 183.608 121.594 183.527 121.683L182.833 122.375C182.756 122.453 182.713 122.558 182.713 122.668C182.713 122.777 182.756 122.882 182.833 122.96L183.908 124.033C183.986 124.109 184.091 124.152 184.201 124.152C184.31 124.152 184.416 124.109 184.494 124.033L185.188 123.335C185.276 123.256 185.386 123.203 185.503 123.184C185.621 123.165 185.741 123.18 185.85 123.227L186.304 123.412C186.416 123.455 186.512 123.529 186.582 123.626C186.652 123.722 186.693 123.837 186.699 123.956V124.938C186.699 124.992 186.71 125.046 186.73 125.096C186.751 125.146 186.782 125.191 186.82 125.229C186.858 125.268 186.904 125.298 186.954 125.319C187.004 125.339 187.058 125.35 187.112 125.35H188.632C188.742 125.35 188.848 125.307 188.926 125.23C189.004 125.153 189.049 125.048 189.05 124.938V123.956C189.055 123.837 189.095 123.723 189.164 123.627C189.234 123.53 189.329 123.456 189.44 123.412L189.894 123.227C190.003 123.18 190.124 123.165 190.241 123.184C190.358 123.203 190.468 123.256 190.556 123.335L191.251 124.033C191.329 124.109 191.434 124.152 191.543 124.152C191.653 124.152 191.758 124.109 191.836 124.033L192.911 122.96C192.988 122.882 193.031 122.777 193.031 122.668C193.031 122.558 192.988 122.453 192.911 122.375L192.217 121.683C192.137 121.594 192.083 121.484 192.064 121.366C192.045 121.248 192.06 121.127 192.108 121.017L192.29 120.564C192.334 120.453 192.409 120.358 192.506 120.288C192.604 120.219 192.719 120.18 192.839 120.175H193.824C193.933 120.174 194.039 120.129 194.116 120.051C194.193 119.973 194.237 119.868 194.237 119.759V118.246C194.24 118.192 194.232 118.137 194.214 118.085C194.195 118.033 194.167 117.986 194.13 117.945C194.094 117.904 194.049 117.871 194 117.847C193.95 117.824 193.897 117.81 193.842 117.807ZM187.902 120.976C187.506 120.976 187.119 120.859 186.79 120.64C186.461 120.421 186.204 120.109 186.053 119.744C185.901 119.379 185.862 118.978 185.939 118.59C186.016 118.203 186.207 117.847 186.486 117.568C186.766 117.289 187.123 117.099 187.511 117.022C187.899 116.944 188.302 116.984 188.667 117.135C189.033 117.286 189.346 117.542 189.566 117.871C189.785 118.199 189.903 118.585 189.903 118.98C189.903 119.509 189.692 120.017 189.317 120.392C188.941 120.766 188.432 120.976 187.902 120.976Z" fill="#C5EDE3"/>
<path d="M185.565 97.75C185.565 101.707 178.386 112.551 178.386 112.551C178.386 112.551 171.207 101.707 171.207 97.75C171.207 95.8504 171.963 94.0285 173.309 92.6853C174.656 91.342 176.482 90.5874 178.386 90.5874C180.29 90.5874 182.116 91.342 183.462 92.6853C184.808 94.0285 185.565 95.8504 185.565 97.75Z" fill="#006FA0"/>
<path d="M180.514 98.1482C180.514 98.5673 180.389 98.9769 180.156 99.3254C179.923 99.6739 179.591 99.9454 179.203 100.106C178.815 100.266 178.388 100.308 177.976 100.226C177.564 100.145 177.185 99.9428 176.888 99.6465C176.591 99.3502 176.389 98.9726 176.307 98.5616C176.225 98.1506 176.267 97.7245 176.428 97.3373C176.589 96.9502 176.861 96.6192 177.21 96.3864C177.559 96.1536 177.97 96.0293 178.39 96.0293C178.953 96.0293 179.493 96.2525 179.892 96.6499C180.29 97.0473 180.514 97.5862 180.514 98.1482Z" fill="white"/>
<path d="M49.0912 71.513C49.0802 71.8377 49.1986 72.1535 49.4207 72.3911C49.6427 72.6288 49.9502 72.7689 50.2756 72.7807H52.5718V77.5437L58.1942 72.7943H69.7342C69.8957 72.789 70.0546 72.752 70.2018 72.6855C70.349 72.6189 70.4816 72.524 70.592 72.4063C70.7024 72.2886 70.7885 72.1503 70.8453 71.9993C70.9021 71.8484 70.9286 71.6877 70.9231 71.5266V57.1334C70.9286 56.9723 70.9021 56.8116 70.8453 56.6607C70.7885 56.5097 70.7024 56.3715 70.592 56.2537C70.4816 56.136 70.349 56.0411 70.2018 55.9745C70.0546 55.908 69.8957 55.871 69.7342 55.8657H50.2756C49.9502 55.8775 49.6427 56.0176 49.4207 56.2553C49.1986 56.4929 49.0802 56.8087 49.0912 57.1334V71.513Z" fill="#00A19A"/>
<path d="M64.0799 64.2552L60.8943 66.0889L57.7087 67.9225V64.2552V60.5879L60.8943 62.4215L64.0799 64.2552Z" fill="white"/>
<path d="M189.485 17.1006H148.866V51.175H189.485V17.1006Z" fill="#F3F3F3"/>
<path d="M189.485 17.1006H148.866V25.9565H189.485V17.1006Z" fill="#00A19A"/>
<path d="M157.298 30.4341H154.33V33.3996H157.298V30.4341Z" fill="#B6C2C9"/>
<path d="M161.754 30.4341H158.782V33.3996H161.754V30.4341Z" fill="#B6C2C9"/>
<path d="M166.206 30.4341H163.238V33.3996H166.206V30.4341Z" fill="#B6C2C9"/>
<path d="M170.662 30.4341H167.694V33.3996H170.662V30.4341Z" fill="#B6C2C9"/>
<path d="M175.118 30.4341H172.146V33.3996H175.118V30.4341Z" fill="#B6C2C9"/>
<path d="M179.57 30.4341H176.602V33.3996H179.57V30.4341Z" fill="#B6C2C9"/>
<path d="M184.022 30.4341H181.054V33.3996H184.022V30.4341Z" fill="#B6C2C9"/>
<path d="M157.298 34.8804H154.33V37.8414H157.298V34.8804Z" fill="#B6C2C9"/>
<path d="M161.754 34.8804H158.782V37.8414H161.754V34.8804Z" fill="#B6C2C9"/>
<path d="M166.206 34.8804H163.238V37.8414H166.206V34.8804Z" fill="#B6C2C9"/>
<path d="M170.662 34.8804H167.694V37.8414H170.662V34.8804Z" fill="#B6C2C9"/>
<path d="M175.118 34.8804H172.146V37.8414H175.118V34.8804Z" fill="#B6C2C9"/>
<path d="M179.57 34.8804H176.602V37.8414H179.57V34.8804Z" fill="#B6C2C9"/>
<path d="M184.022 34.8804H181.054V37.8414H184.022V34.8804Z" fill="#B6C2C9"/>
<path d="M157.298 39.3218H154.33V42.2873H157.298V39.3218Z" fill="#B6C2C9"/>
<path d="M161.754 39.3218H158.782V42.2873H161.754V39.3218Z" fill="#B6C2C9"/>
<path d="M166.206 39.3218H163.238V42.2873H166.206V39.3218Z" fill="#B6C2C9"/>
<path d="M170.662 39.3218H167.694V42.2873H170.662V39.3218Z" fill="#B6C2C9"/>
<path d="M175.118 39.3218H172.146V42.2873H175.118V39.3218Z" fill="#B6C2C9"/>
<path d="M179.57 39.3218H176.602V42.2873H179.57V39.3218Z" fill="#B6C2C9"/>
<path d="M184.022 39.3218H181.054V42.2873H184.022V39.3218Z" fill="#B6C2C9"/>
<path d="M157.298 43.7681H154.33V46.7291H157.298V43.7681Z" fill="#B6C2C9"/>
<path d="M161.754 43.7681H158.782V46.7291H161.754V43.7681Z" fill="#B6C2C9"/>
<path d="M166.206 43.7681H163.238V46.7291H166.206V43.7681Z" fill="#B6C2C9"/>
<path d="M170.662 43.7681H167.694V46.7291H170.662V43.7681Z" fill="#B6C2C9"/>
<path d="M175.118 43.7681H172.146V46.7291H175.118V43.7681Z" fill="#B6C2C9"/>
<path d="M179.57 43.7681H176.602V46.7291H179.57V43.7681Z" fill="#B6C2C9"/>
<path d="M184.022 43.7681H181.054V46.7291H184.022V43.7681Z" fill="#B6C2C9"/>
<path d="M155.814 12.6592V21.5468V18.5858V15.6202V12.6592Z" stroke="#D9E1E4" stroke-width="6.75"/>
<path d="M182.542 12.6592V21.5468V18.5858V15.6202V12.6592Z" stroke="#D9E1E4" stroke-width="6.75"/>
<path d="M133.378 23.3577C133.377 24.0209 133.112 24.6566 132.642 25.1252C132.171 25.5937 131.534 25.8569 130.869 25.8569H129.199V31.6974L123.345 25.8569H104.118C103.789 25.8575 103.462 25.7933 103.158 25.668C102.854 25.5426 102.577 25.3586 102.344 25.1265C102.111 24.8944 101.926 24.6186 101.8 24.3151C101.673 24.0116 101.609 23.6863 101.609 23.3577V2.50374C101.609 1.83971 101.873 1.20287 102.344 0.733331C102.814 0.263789 103.452 0 104.118 0H130.892C131.557 0.00119687 132.194 0.265367 132.665 0.734651C133.135 1.20393 133.4 1.84007 133.401 2.50374L133.378 23.3577Z" fill="#006FA0"/>
<path d="M128.373 7.50684H106.637V9.17298H128.373V7.50684Z" fill="white"/>
<path d="M128.373 11.6768H106.637V13.3429H128.373V11.6768Z" fill="white"/>
<path d="M128.373 15.8467H106.637V17.5128H128.373V15.8467Z" fill="white"/>
<path d="M123.595 91.6559C123.595 91.6559 133.946 94.7482 137.662 93.888C141.379 93.0277 136.392 89.3016 140.135 86.2228C145.581 81.7405 144.12 69.412 138.175 74.3742C132.23 79.3364 134.141 83.4655 135.679 80.3732C137.218 77.2809 143.466 70.1454 134.318 66.3921C125.169 62.6388 119.343 66.7905 125.36 73.1427C131.377 79.4949 120.4 61.1492 117.904 67.1437C115.408 73.1382 120.954 75.0126 122.773 75.8185C124.593 76.6244 117.782 67.9541 115.762 74.5689C113.743 81.1836 117.691 86.422 123.595 91.6559Z" fill="#212A54"/>
<path d="M124.094 186.617L123.586 164.694L98.4365 157.169C98.4365 157.169 99.0174 169.091 100.429 186.599L124.094 186.617Z" fill="#212957"/>
<path d="M138.193 186.617L133.288 167.072L104.526 159.551L113.943 186.617H138.193Z" fill="#3C63BA"/>
<path d="M114.387 186.617H124.094L123.604 165.532L121.594 164.101L98.4365 157.169C98.4365 157.169 98.8358 165.378 99.7979 178.191L114.387 186.617Z" fill="#3C63BA"/>
<path d="M133.406 167.501L133.292 167.049L119.225 163.368L98.4365 157.169C98.4365 157.169 98.5046 158.636 98.6588 161.29L133.406 167.501Z" fill="#163F59"/>
<path d="M147.9 101.73C147.9 101.73 134.359 92.2218 122.138 108.068C109.917 123.915 97.1387 156.934 97.1387 156.934L134.35 169.054L146.47 121.008C146.47 121.008 153.186 104.899 147.9 101.73Z" fill="#EAF4FE"/>
<path d="M148.031 102.391C148.031 102.391 152.224 101.997 150.427 114.665C148.63 127.333 144.197 152.022 142.159 158.229C141.656 159.764 139.641 166.94 136.405 162.584C133.17 158.229 131.014 141.463 136.523 119.817C140.058 105.936 145.876 102.391 148.031 102.391Z" fill="#C5E1F9"/>
<path d="M140.004 160.475C140.004 160.475 138.325 147.798 134.967 145.421C131.609 143.044 118.671 134.862 118.671 134.862L115.073 142.786C115.073 142.786 135.448 163.11 137.844 163.644C140.24 164.178 140.004 161.267 140.004 160.475Z" fill="#C5E1F9"/>
<path d="M126.154 96.1066C128.423 102.735 129.889 105.972 130.261 106.298C132.829 108.562 140.435 102.676 139.477 101.042C138.52 99.4072 137.068 91.081 137.118 89.7906C137.168 88.5003 124.802 92.1585 126.154 96.1066Z" fill="#F7B68B"/>
<path d="M130.374 91.3255C132.198 90.5052 134.117 89.9151 136.088 89.5688C136.192 91.7828 136.233 93.9877 136.137 95.4547C135.861 99.5702 132.739 101.793 130.81 103.45C130.329 103.836 129.796 104.151 129.226 104.388C128.704 103.274 127.792 100.847 126.154 96.0749C125.537 94.2956 127.77 92.5661 130.374 91.3255Z" fill="#EC9568"/>
<path d="M119.892 78.2723L120.677 97.288C120.677 97.288 120.863 101.816 122.664 102.3C124.466 102.784 129.195 102.078 131.128 100.408C133.061 98.7369 136.183 96.5274 136.455 92.4119C136.727 88.2963 135.883 78.5439 135.883 78.5439C135.883 78.5439 134.313 75.4426 128.196 77.8965C122.079 80.3504 119.892 78.2723 119.892 78.2723Z" fill="#F7B68B"/>
<path d="M120.368 73.6002C119.524 73.899 118.099 74.6642 117.827 76.1175C117.555 77.5709 119.021 79.6717 120.341 79.8663C121.662 80.061 130.066 79.4136 131.078 78.9608C132.09 78.5081 134.018 77.9467 134.849 76.3167C135.384 75.2618 132.126 73.3557 130.265 74.053C125.537 75.8323 123.508 72.4774 120.368 73.6002Z" fill="#212A54"/>
<path d="M132.698 76.6063L133.038 84.8329L133.878 89.125L134.871 89.048L136.687 88.8986C136.687 88.8986 139.21 77.3579 136.333 76.303C133.456 75.2481 132.834 75.9498 132.698 76.6063Z" fill="#212A54"/>
<path d="M135.017 89.8447C135.025 90.0126 135.066 90.1772 135.14 90.3284C135.214 90.4797 135.317 90.6144 135.444 90.7245C135.572 90.8346 135.72 90.9177 135.881 90.9689C136.041 91.02 136.21 91.038 136.378 91.0219L137.154 90.954C137.507 90.9318 137.838 90.7733 138.076 90.5122C138.314 90.2511 138.44 89.9077 138.429 89.5549L138.307 86.5441C138.297 86.3743 138.253 86.2083 138.177 86.056C138.101 85.9037 137.995 85.7684 137.866 85.6583C137.736 85.5482 137.585 85.4656 137.422 85.4155C137.259 85.3654 137.088 85.3489 136.918 85.367L136.147 85.4304C135.793 85.4525 135.461 85.6116 135.223 85.8737C134.985 86.1358 134.859 86.4803 134.871 86.8339L135.017 89.8447Z" fill="#F0BF97"/>
<path d="M89.0385 107.869L91.439 110.572L89.5966 112.152L89.3425 111.487L89.0385 107.869Z" fill="#C5E1F9"/>
<path d="M108.325 108.784L106.841 107C106.841 107 98.922 106.846 95.8589 107.905C92.7958 108.965 89.5739 111.727 89.5739 111.727C89.5739 111.727 89.9325 109.177 89.2699 108.104C88.8161 107.407 87.0736 106.013 85.694 105.506C84.2328 105.039 82.7484 104.648 81.2469 104.333L79.6132 105.402L87.4275 114.067L92.1288 114.832L108.325 108.784Z" fill="#EAF4FE"/>
<path d="M108.783 108.784C108.783 108.784 99.5347 108.331 96.6259 109.141C93.8668 109.907 91.5162 110.622 90.595 112.764L100.66 129.38C100.66 129.38 105.003 128.058 108.733 128.261C112.463 128.465 118.49 128.768 118.49 128.768L108.783 108.784Z" fill="#006FA0"/>
<path d="M88.3986 113.044C88.3986 113.044 89.1156 111.871 87.6862 110.291C86.2568 108.711 83.5476 105.397 78.8463 105.397C78.7465 105.397 86.2567 125.427 86.2567 125.427L96.7257 127.623L97.9554 127.568L88.3986 113.044Z" fill="#006FA0"/>
<path d="M90.595 112.736L88.3986 113.044L97.9509 128.438L99.9431 128.488L100.047 127.976L90.595 112.736Z" fill="#1B5A7A"/>
<path d="M104.032 134.351L103.828 132.209C102.093 131.332 100.479 130.235 99.0265 128.945C97.3429 127.451 96.3445 126.097 96.0133 126.296C95.7955 126.423 95.8726 127.202 97.0343 129.918" fill="#EC9568"/>
<path d="M111.184 128.333L107.608 126.907L105.411 124.716C105.411 124.716 102.856 121.655 101.223 120.791C99.5891 119.926 98.8721 119.518 98.3639 119.722C97.8556 119.926 97.2385 120.333 97.5425 120.741C97.8466 121.148 99.1807 121.859 100.356 123.389C101.531 124.92 101.885 125.653 102.961 126.346C104.036 127.039 105.411 128.845 105.411 128.845C105.411 128.845 105.107 129.506 104.699 129.66C104.29 129.814 100.66 127.568 100.097 127.265C99.5347 126.962 95.7546 123.494 95.7546 123.494L93.9667 121.71C93.9667 121.71 92.8458 121.257 92.4873 121.759C92.1288 122.262 92.5372 122.371 93.3949 123.543C93.9111 124.251 94.3665 125.001 94.7563 125.784L95.5186 126.599L98.432 129.814L103.183 132.358C103.183 132.358 103.387 133.531 103.387 133.717C103.387 133.902 103.492 134.228 104 134.332C104.508 134.437 107.63 135.238 108.447 135.858C109.296 136.377 110.184 136.832 111.102 137.217C111.356 137.37 111.665 138.493 111.919 138.846C112.173 139.2 114.115 141.11 114.115 141.11L119.07 138.846L119.633 136.198L117.364 133.803L115.095 128.451L111.184 128.333Z" fill="#F7B68B"/>
</g>
<defs>
<clipPath id="clip0_18_497">
<rect width="260" height="207" fill="white"/>
</clipPath>
</defs>
</svg>
